/* XPM */
static char *bc5bb29ba84f4015a1bf5fc72483d0efCZbrZggTyGQQsE3S[] = {
/* columns rows colors chars-per-pixel */
"128 128 43 1 ",
"  c #EA0C07",
". c #E90808",
"X c #EB1507",
"o c #EB1B07",
"O c #EA1208",
"+ c #EC1D08",
"@ c #ED2307",
"# c #ED2C07",
"$ c #EC2308",
"% c #ED2908",
"& c #EE3407",
"* c #EF3A07",
"= c #F03E07",
"- c #F04306",
"; c #F24C07",
": c #F25407",
"> c #F35B06",
", c #F46106",
"< c #F56706",
"1 c #F56A06",
"2 c #F56C06",
"3 c #F67305",
"4 c #F67705",
"5 c #F77906",
"6 c #F77C06",
"7 c #F87C06",
"8 c #F78006",
"9 c #F88205",
"0 c #F88605",
"q c #F88805",
"w c #FA8E05",
"e c #FA9205",
"r c #FB9505",
"t c #FB9804",
"y c #FB9F04",
"u c #FC9C04",
"i c #FCA104",
"p c #FCA705",
"a c #FDAB05",
"s c #FEAF05",
"d c #FEB104",
"f c #FFB604",
"g c #FFBA04",
/* pixels */
"gggggggggggggggggggggggggggggggggggggggggggggggggggggggggggggggggggggggggggggggggggggggggggggggggggggggggggggggggggggggggggggggg",
"gggggggggggggggggggggggggggggggggggggggggggggggggggggggggggggggggggggggggggggggggggggggggggggggggggggggggggggggggggggggggggggggg",
"gggggggggggggggggggggggggggggggggggggggggggggggggggggggggggggggggggggggggggggggggggggggggggggggggggggggggggggggggggggggggggggggg",
"gggggggggggggggggggggggggggggggggggggggggggggggggggggggggggggggggggggggggggggggggggggggggggggggggggggggggggggggggggggggggggggggg",
"gggggggggggggggggggggggggggggggggggggggggggggggggggggggggggggggggggggggggggggggggggggggggggggggggggggggggggggggggggggggggggggggg",
"gggggggggggggggggggggggggggggggggggggggggggggggggggggggggggggggggggggggggggggggggggggggggggggggggggggggggggggggggggggggggggggggg",
"gggggggggggggggggggggggggggggggggggggggggggggggggggggggggggggggggggggggggggggggggggggggggggggggggggggggggggggggggggggggggggggggg",
"gggggggggggggggggggggggggggggggggggggggggggggggggggggggggggggggggggggggggggggggggggggggggggggggggggggggggggggggggggggggggggggggg",
"gggggggggggggggggggggggggggggggggggggggggggggggggggggggggggggggggggggggggggggggggggggggggggggggggggggggggggggggggggggggggggggggg",
"ggggggggggggggggggggggggggggggggggggggggggggggggggggggggggw3pggggggggggggggggggggggggggggggggggggggggggggggggggggggggggggggggggg",
"ggggggggggggggggggggggggggggggggggggggggggggggggggggggggg-...-gggggggggggggggggggggggggggggggggggggggggggggggggggggggggggggggggg",
"gggggggggggggggggggggggggggggggggggggggggggggggggggggggg3.....,ggggggggggggggggggggggggggggggggggggggggggggggggggggggggggggggggg",
"gggggggggggggggggggggggggggggggggggggggggggggggggggggggg&.....-ggggggggggggggggggggggggggggggggggggggggggggggggggggggggggggggggg",
"gggggggggggggggggggggggggggggggggggggggggggggggggggggggg*.....&ggggggggggggggggggggggggggggggggggggggggggggggggggggggggggggggggg",
"gggggggggggggggggggggggggggggggggggggggggggggggggggggggg:.....&ggggggggggggggggggggggggggggggggggggggggggggggggggggggggggggggggg",
"gggggggggggggggggggggggggggggggggggggggggggggggggggggggg1.....&ggggggggggggggggggggggggggggggggggggggggggggggggggggggggggggggggg",
"gggggggggggggggggggggggggggggggggggggggggggggggggggggggg7.....&ggggggggggggggggggggggggggggggggggggggggggggggggggggggggggggggggg",
"ggggggggggggggggggggggggggggggggggggggggggggggggggggggggw.....&ggggggggggggggggggggggggggggggggggggggggggggggggggggggggggggggggg",
"ggggggggggggggggggggggggggggggggggggggggggggggggggggggggp.....&ggggggggggggggggggggggggggggggggggggggggggggggggggggggggggggggggg",
"ggggggggggggggggggggggggggggggggggggggggggggggggggggggggg ....&ggggggggggggggggggggggggggggggggggggggggggggggggggggggggggggggggg",
"ggggggggggggggggggggggggggggggggggggggggggggggggggggggggg%....&ggggggggggggggggggggggggggggggggggggggggggggggggggggggggggggggggg",
"ggggggggggggggggggggggggggggggggggggggggggggggggggggggggg&....Oggggggggggggggggggggggggggggggggggggggggggggggggggggggggggggggggg",
"ggggggggggggggggggggggggggggggggggggggggggggggggggggggggg&.....tgggggggggggggggggggggggggggggggggggggggggggggggggggggggggggggggg",
"ggggggggggggggggggggggggggggggggggggggggggggggggggggggggg&.....4gggggggggggggggggggggggggggggggggggggggggggggggggggggggggggggggg",
"ggggggggggggggggggggggggggggggggggggggggggggggggggggggggg:.....>gggggggggggggggggggggggggggggggggggggggggggggggggggggggggggggggg",
"ggggggggggggggggggggggggggggggggggggggggggggggggggggggggg3.....;gggggggggggggggggggggggggggggggggggggggggggggggggggggggggggggggg",
"ggggggggggggggggggggggggggggggggggggggggggggggggggggggggge.....*gggggggggggggggggggggggggggggggggggggggggggggggggggggggggggggggg",
"gggggggggggggggggggggggggggggggggggggggggggggggggggggggggd.....#gggggggggggggggggggggggggggggggggggggggggggggggggggggggggggggggg",
"ggggggggggggggggggggggggggggggggggggggggggggggggggggggggggo....+gggggggggggggggggggggggggggggggggggggggggggggggggggggggggggggggg",
"gggggggggggggggggggggggggggggggggggggggggggggggggggggggggg&....Ogggggggggggggggggggggggggggggggggggggstwwggggggggggggggggggggggg",
"gggggggggggggggggggggggggggggggggggggggggggggggggggggggggg;.....ggggggggggggggggggggfdsaiutreq741>-% ....wgggggggggggggggggggggg",
"gggggggggggggggggggggggggggggggggggggggggggggggggggggggggs>.....-*&&&&&&#$+XO...........................$wgggggggggggggggggggggg",
"ggggggggggggggggggggggggggggggggggggggfspueq9531>:;-*#$X .................................... X$#&=;:<4qsggggggggggggggggggggggg",
"ggggggggggggggggggggggggr,,,,:;-*#$+X ........................................ Oo$#&-:>25qrpdggggggggggggggggggggggggggggggggggg",
"ggggggggggggggggggggggy#...........................................X+$#=:<4qysgggggggggggggggggggggggggggggggggggggggggggggggggg",
"gggggggggggggggggggggg<...............................O@#=;o....2agggggggggggggggggggggggggggggggggggggggggggggggggggggggggggggg",
"gggggggggggggggggggggg&......................X#->29rpgggggg*....4ggggggggggggggggggggggggggggggggggggggggggggggggggggggggggggggg",
"gggggggggggggggggggggg<..............O$*:29tdgggggggggggggg-....>ggggggggggggggggggggggggggggggggggggggggggggggggggggggggggggggg",
"ggggggggggggggggggggggy$.....O$*:<7ragggggggggggggggggggggg;....-ggggggggggggggggggggggggggggggggggggggggggggggggggggggggggggggg",
"gggggggggggggggggggggggy,,1qagggggggggggggggggggggggggggggg:....#ggggggggggggggggggggggggggggggggggggggggggggggggggggggggggggggg",
"ggggggggggggggggggggggggggggggggggggggggggggggggggggggggggg:....@ggggggggggggggggggggggggggggggggggggggggggggggggggggggggggggggg",
"ggggggggggggggggggggggggggggggggggggggggggggggggggggggggggg:....Oggggggggggggggggggggggggggggggggggggggggggggggggggggggggggggggg",
"ggggggggggggggggggggggggggggggggggggggggggggggggggggggggggg>.....gggggggggggggggggguwwwdggq2;,tggggggggggggggggggggggggggggggggg",
"ggggggggggggggggggggggggggggggggggggggggggggggggggggggggggg>....Ogggggggggggt02>-&O....oe;.....:gggggggggggggggggggggggggggggggg",
"ggggggggggggggggggggggggggggggggggggggggggggggggggggggggggg,....ogggggggge>$............O.......,ggggggggggggggggggggggggggggggg",
"gggggggggggggggggggggggggggggggggggggggggggggggggggfatwtisf1....@pue93,-@........................wgggggggggggggggggggggggggggggg",
"ggggggggggggggggggggggggggggggggggggwq3,,,,>:;=&#+O..............................................:gggggggggggggggggggggggggggggg",
"gggggggggggggggggggggggggggggggggg9#.............................................................&gggggggggggggggggggggggggggggg",
"ggggggggggggggggggggggggggggggggg9...............................................................>gggggggggggggggggggggggggggggg",
"ggggggggggggggggggggggggggggggggg#.................................................o%+...........9gggggggggggggggggggggggggggggg",
"gggggggggggggggggggggggggggggggg:........................................#&&;2wwtagg9...........+sgggggggggggggggggggggggggggggg",
"ggggggggggggggggggggggggggggggg>......................... @@....-uafgggggggggggggggt@...........6ggggggggggggggggggggggggggggggg",
"ggggggggggggggggggggggggggggggf ...............O&-:>250tsgg5....,gggggggggggggggggdO...........2gggggggggggggggggggggggggggggggg",
"ggggggggggggggggggggggggggggggw........... &>6ugggggggggggg5....:ggggpwwwww0741,,;............:ggggggggggggggggggggggggggggggggg",
"ggggggggggggggggggggggggggggggw.........@rgggggdaitwwwwwwww>....#>-#O........................#dggggggggggggggggggggggggggggggggg",
"ggggggggggggggggggggggggggggggp..........--..................................................wgggggggggggggggggggggggggggggggggg",
"ggggggggggggggggggggggggggggggg:............................................................3ggggggggggggggggggggggggggggggggggg",
"gggggggggggggggggggggggggggggggf&..........................................................,gggggggggggggggggggggggggggggggggggg",
"ggggggggggggggggggggggggggggggggy@...........................................O............-ggggggggggggggggggggggggggggggggggggg",
"gggggggggggggggggggggggggggggggggw....................................$*:17rd-...........@iggggggggggggggggggggggggggggggggggggg",
"ggggggggggggggggggggggggggggggggggw.............................&0wwugggggggp ...........9gggggggggggggggggggggggggggggggggggggg",
"gggggggggggggggggggggggggggggggggggw..................O$*:1>....1gggggfpe92>@...........,ggggggggggggggggggggggggggggggggggggggg",
"gggggggggggggggggggggggggggggggggggg8.........X&;>29tsggggg6....>3,;&o.................,gggggggggggggggggggggggggggggggggggggggg",
"ggggggggggggggggggggggggggggggggggggg2........@:>250www9,;=+..........................;ggggggggggggggggggggggggggggggggggggggggg",
"gggggggggggggggggggggggggggggggggggggg>...............................................6ggggggggggggggggggggggggggggggggggggggggg",
"gggggggggggggggggggggggggggggggggggggggo..............................................sggggggggggggggggggggggggggggggggggggggggg",
"ggggggggggggggggggggggggggggggggggggggu..............................................Xgggggggggggggggggggggggggggggggggggggggggg",
"gggggggggggggggggggggggggggggggggggggg5..............................................&gggggggggggggggggggggggggggggggggggggggggg",
"gggggggggggggggggggggggggggggggggggggg5..............................................3gggggggggggggggggggggggggggggggggggggggggg",
"ggggggggggggggggggggggggggggggggggggggao............................X@#*;>21X.......*ggggggggggggggggggggggggggggggggggggggggggg",
"ggggggggggggggggggggggggggggggggggggggg,.............X$&&*&O...X3:>tgggggggg7......#uggggggggggggggggggggggggggggggggggggggggggg",
"gggggggggggggggggggggggggggggggggggggggg>..... @;<9tdgggs:..........-gggggggg0;o.o,dgggggggggggggggggggggggggggggggggggggggggggg",
"gggggggggggggggggggggggggggggggggggggggggywwysgggggggggq#............*gggggggggggggggggggggggggggggggggggggggggggggggggggggggggg",
"gggggggggggggggggggggggggggggggggggggggggggggggggggggg<...............*ggggggggggggggggggggggggggggggggggggggggggggggggggggggggg",
"ggggggggggggggggggggggggggggggggggggggggggggggggggggi-.................&gggggggggggggggggggggggggggggggggggggggggggggggggggggggg",
"ggggggggggggggggggggggggggggggggggggggggggggggggggg5+...................#ggggggggggggggggggggggggggggggggggggggggggggggggggggggg",
"gggggggggggggggggggggggggggggggggggggggggggggggggs:............@.........&gggggggggggggggggggggggggggggggggggggggggggggggggggggg",
"gggggggggggggggggggggggggggggggggggggggggggggggg9%.............75.........#ggggggggggggggggggggggggggggggggggggggggggggggggggggg",
"ggggggggggggggggggggggggggggggggggggggggggggggf>..........@....qge%........$gggggggggggggggggggggggggggggggggggggggggggggggggggg",
"gggggggggggggggggggggggggggggggggggggggggggggw&.........#33....uggs;........oggggggggggggggggggggggggggggggggggggggggggggggggggg",
"gggggggggggggggggggggggggggggggggggggggggggg,.........+2gg>....fgggg3X.......Ogggggggggggggggggggggggggggggggggggggggggggggggggg",
"gggggggggggggggggggggggggggggggggggggggggge&.........:pggg-...+ggggggt&........ggggggggggggggggggggggggggggggggggggggggggggggggg",
"ggggggggggggggggggggggggggggggggggggggggg4X........=eggggg#...&gggggggf:........gggggggggggggggggggggggggggggggggggggggggggggggg",
"gggggggggggggggggggggggggggggggggggggggg>........%5ggggggg+...&ggggggggg3 .......ggggggggggggggggggggggggggggggggggggggggggggggg",
"ggggggggggggggggggggggggggggggggggggggd-........,dggggggggO...&ggggggggggw#.......gggggggggggggggggggggggggggggggggggggggggggggg",
"gggggggggggggggggggggggggggggggggggggt&.......o7gggggggggd....&ggggggggggga;.......dgggggggggggggggggggggggggggggggggggggggggggg",
"gggggggggggggggggggggggggggggggggggg5o.......-tggggggggggu....oggggggggggggg<.......pggggggggggggggggggggggggggggggggggggggggggg",
"ggggggggggggggggggggggggggggggggggg>.......O2ggggggggggggq.....fggggggggggggg9+......rgggggggggggggggggggggggggggggggggggggggggg",
"gggggggggggggggggggggggggggggggggt*.......&eggggggggggggg3.....yggggggggggggggy*......qggggggggggggggggggggggggggggggggggggggggg",
"gggggggggggggggggggggggggggggggg7o.......:dgggggggggggggg,.....wgggggggggggggggg>......4gggggggggggggggggggggggggggggggggggggggg",
"ggggggggggggggggggggggggggggggg>.......@5gggggggggggggggg,.....wgggggggggggggggggq#.....>ggggggggggggggggggggggggggggggggggggggg",
"gggggggggggggggggggggggggggggi-.......:aggggggggggggggggg>.....wggggggggggggggggggd>.....;sggggggggggggggggggggggggggggggggggggg",
"gggggggggggggggggggggggggggg5+......#9ggggggggggggggggggg;.....wgggggggggggggggggggg9@....#tgggggggggggggggggggggggggggggggggggg",
"ggggggggggggggggggggggggggs:.......:sgggggggggggggggggggg*.....wgggggggggggggggggggggi-....O9ggggggggggggggggggggggggggggggggggg",
"ggggggggggggggggggggggggg0%......#9gggggggggggggggggggggg#.....wggggggggggggggggggggggg<.....2gggggggggggggggggggggggggggggggggg",
"gggggggggggggggggggggggg>.......:sgggggggggggggggggggggggo.....wgggggggggggggggggggggggg0$....:ggggggggggggggggggggggggggggggggg",
"ggggggggggggggggggggggw&......#0ggggggggggggggggggggggggg......wggggggggggggggggggggggggga;....*fggggggggggggggggggggggggggggggg",
"ggggggggggggggggggggg,.......>fgggggggggggggggggggggggggg......wggggggggggggggggggggggggggg2 ...@ugggggggggggggggggggggggggggggg",
"gggggggggggggggggggw&......*wgggggggggggggggggggggggggggs......wggggggggggggggggggggggggggggw#...O9ggggggggggggggggggggggggggggg",
"gggggggggggggggggg,......O1gggggggggggggggggggggggggggggr......wgggggggggggggggggggggggggggggd;....;gggggggggggggggggggggggggggg",
"ggggggggggggggggt&......=tgggggggggggggggggggggggggggggg9......wggggggggggggggggggggggggggggggg<....$qgggggggggggggggggggggggggg",
"ggggggggggggggg0o..... 1gggggggggggggggggggggggggggggggg4......wgggggggggggggggggggggggggggggggg5X....;ygggggggggggggggggggggggg",
"gggggggggggggg>......*eggggggggggggggggggggggggggggggggg1......wgggggggggggggggggggggggggggggggggr&....O,ggggggggggggggggggggggg",
"ggggggggggggg:......,ggggggggggggggggggggggggggggggggggg,......wggggggggggggggggggggggggggggggggggd;.....&qggggggggggggggggggggg",
"ggggggggggggg.....$qgggggggggggggggggggggggggggggggggggg,......wgggggggggggggggggggggggggggggggggggg2......>dggggggggggggggggggg",
"ggggggggggggg#...-pggggggggggggggggggggggggggggggggggggg,......wgggggggggggggggggggggggggggggggggggggq#.....#9gggggggggggggggggg",
"gggggggggggggy&&wggggggggggggggggggggggggggggggggggggggg,......wggggggggggggggggggggggggggggggggggggggd>......;pgggggggggggggggg",
"gggggggggggggggggggggggggggggggggggggggggggggggggggggggg,......wggggggggggggggggggggggggggggggggggggggggw*.....@6ggggggggggggggg",
"gggggggggggggggggggggggggggggggggggggggggggggggggggggggg4.....&ggggggggggggggggggggggggggggggggggggggggggg1O.....;yggggggggggggg",
"ggggggggggggggggggggggggggggggggggggggggggggggggggggggggg,...&yggggggggggggggggggggggggggggggggggggggggggggt-.....&ggggggggggggg",
"ggggggggggggggggggggggggggggggggggggggggggggggggggggggggggi20gggggggggggggggggggggggggggggggggggggggggggggggg2o....ggggggggggggg",
"gggggggggggggggggggggggggggggggggggggggggggggggggggggggggggggggggggggggggggggggggggggggggggggggggggggggggggggga,..,ggggggggggggg",
"ggggggggggggggggggggggggggggggggggggggggggggggggggggggggggggggggggggggggggggggggggggggggggggggggggggggggggggggggwwgggggggggggggg",
"gggggggggggggggggggggggggggggggggggggggggggggggggggggggggggggggggggggggggggggggggggggggggggggggggggggggggggggggggggggggggggggggg",
"gggggggggggggggggggggggggggggggggggggggggggggggggggggggggggggggggggggggggggggggggggggggggggggggggggggggggggggggggggggggggggggggg",
"gggggggggggggggggggggggggggggggggggggggggggggggggggggggggggggggggggggggggggggggggggggggggggggggggggggggggggggggggggggggggggggggg",
"gggggggggggggggggggggggggggggggggggggggggggggggggggggggggggggggggggggggggggggggggggggggggggggggggggggggggggggggggggggggggggggggg",
"gggggggggggggggggggggggggggggggggggggggggggggggggggggggggggggggggggggggggggggggggggggggggggggggggggggggggggggggggggggggggggggggg",
"gggggggggggggggggggggggggggggggggggggggggggggggggggggggggggggggggggggggggggggggggggggggggggggggggggggggggggggggggggggggggggggggg",
"gggggggggggggggggggggggggggggggggggggggggggggggggggggggggggggggggggggggggggggggggggggggggggggggggggggggggggggggggggggggggggggggg",
"gggggggggggggggggggggggggggggggggggggggggggggggggggggggggggggggggggggggggggggggggggggggggggggggggggggggggggggggggggggggggggggggg",
"gggggggggggggggggggggggggggggggggggggggggggggggggggggggggggggggggggggggggggggggggggggggggggggggggggggggggggggggggggggggggggggggg",
"gggggggggggggggggggggggggggggggggggggggggggggggggggggggggggggggggggggggggggggggggggggggggggggggggggggggggggggggggggggggggggggggg",
"gggggggggggggggggggggggggggggggggggggggggggggggggggggggggggggggggggggggggggggggggggggggggggggggggggggggggggggggggggggggggggggggg",
"gggggggggggggggggggggggggggggggggggggggggggggggggggggggggggggggggggggggggggggggggggggggggggggggggggggggggggggggggggggggggggggggg",
"gggggggggggggggggggggggggggggggggggggggggggggggggggggggggggggggggggggggggggggggggggggggggggggggggggggggggggggggggggggggggggggggg",
"gggggggggggggggggggggggggggggggggggggggggggggggggggggggggggggggggggggggggggggggggggggggggggggggggggggggggggggggggggggggggggggggg",
"gggggggggggggggggggggggggggggggggggggggggggggggggggggggggggggggggggggggggggggggggggggggggggggggggggggggggggggggggggggggggggggggg"
};
