/* XPM */
static char *_5cac06567cb4cf2d036cb41889b1c347cKwlEgypwzGqoc2[] = {
/* columns rows colors chars-per-pixel */
"128 128 44 1 ",
"  c #E90808",
". c #EB1507",
"X c #EB1B07",
"o c #EA1208",
"O c #EC1E08",
"+ c #ED2C07",
"@ c #EC2408",
"# c #ED2908",
"$ c #EE3507",
"% c #EF3C07",
"& c #F03E07",
"* c #EF4007",
"= c #F04306",
"- c #F24B07",
"; c #F24A08",
": c #F25407",
"> c #F35C06",
", c #F46106",
"< c #F56406",
"1 c #F56B06",
"2 c #F56C05",
"3 c #F67205",
"4 c #F67605",
"5 c #F77B06",
"6 c #F77D06",
"7 c #F87B06",
"8 c #F87E06",
"9 c #F88205",
"0 c #F98505",
"q c #F98805",
"w c #F98E05",
"e c #FA9305",
"r c #FA9505",
"t c #FB9805",
"y c #FC9B04",
"u c #FB9E04",
"i c #FC9C04",
"p c #FCA104",
"a c #FDA605",
"s c #FEAB05",
"d c #FDAE04",
"f c #FEB304",
"g c #FEB404",
"h c #FFBA04",
/* pixels */
"hhhhhhhhhhhhhhhhhhhhhhhhhhhhhhhhhhhhhhhhhhhhhhhhhhhhhhhhhhhhhhhhhhhhhhhhhhhhhhhhhhhhhhhhhhhhhhhhhhhhhhhhhhhhhhhhhhhhhhhhhhhhhhhh",
"hhhhhhhhhhhhhhhhhhhhhhhhhhhhhhhhhhhhhhhhhhhhhhhhhhhhhhhhhhhhhhhhhhhhhhhhhhhhhhhhhhhhhhhhhhhhhhhhhhhhhhhhhhhhhhhhhhhhhhhhhhhhhhhh",
"hhhhhhhhhhhhhhhhhhhhhhhhhhhhhhhhhhhhhhhhhhhhhhhhhhhhhhhhhhhhhhhhhhhhhhhhhhhhhhhhhhhhhhhhhhhhhhhhhhhhhhhhhhhhhhhhhhhhhhhhhhhhhhhh",
"hhhhhhhhhhhhhhhhhhhhhhhhhhhhhhhhhhhhhhhhhhhhhhhhhhhhhhhhhhhhhhhhhhhhhhhhhhhhhhhhhhhhhhhhhhhhhhhhhhhhhhhhhhhhhhhhhhhhhhhhhhhhhhhh",
"hhhhhhhhhhhhhhhhhhhhhhhhhhhhhhhhhhhhhhhhhhhhhhhhhhhhhhhhhhhhhhhhhhhhhhhhhhhhhhhhhhhhhhhhhhhhhhhhhhhhhhhhhhhhhhhhhhhhhhhhhhhhhhhh",
"hhhhhhhhhhhhhhhhhhhhhhhhhhhhhhhhhhhhhhhhhhhhhhhhhhhhhhhhhhhhhhhhhhhhhhhhhhhhhhhhhhhhhhhhhhhhhhhhhhhhhhhhhhhhhhhhhhhhhhhhhhhhhhhh",
"hhhhhhhhhhhhhhhhhhhhhhhhhhhhhhhhhhhhhhhhhhhhhhhhhhhhhhhhhhhhhhhhhhhhhhhhhhhhhhhhhhhhhhhhhhhhhhhhhhhhhhhhhhhhhhhhhhhhhhhhhhhhhhhh",
"hhhhhhhhhhhhhhhhhhhhhhhhhhhhhhhhhhhhhhhhhhhhhhhhhhhhhhhhhhhhhhhhhhhhhhhhhhhhhhhhhhhhhhhhhhhhhhhhhhhhhhhhhhhhhhhhhhhhhhhhhhhhhhhh",
"hhhhhhhhhhhhhhhhhhhhhhhhhhhhhhhhhhhhhhhhhhhhhhhhhhhhhhhhhhhhhhhhhhhhhhhhhhhhhhhhhhhhhhhhhhhhhhhhhhhhhhhhhhhhhhhhhhhhhhhhhhhhhhhh",
"hhhhhhhhhhhhhhhhhhhhhhhhhhhhhhhhhhhhhhhhhhhhhhhhhhhhhhhhhhhhhhhhhhhhhhhhhhhhhhhhhhhhhhhhhhhhhhhhhhhhhhhhhhhhhhhhhhhhhhhhhhhhhhhh",
"hhhhhhhhhhhhhhhhhhhhhhhhhhhhhhhhhhhhhhhhhhhhhhhhhhhhhhhhhhhhhhhhhhhhhhhhhhhhhhhhhhhhhhhhhhhhhhhhhhhhhhhhhhhhhhhhhhhhhhhhhhhhhhhh",
"hhhhhhhhhhhhhhhhhhhhhhhhhhhhhhhhhhhhhhhhhhhhhhhhhhhhhhhhhhhhhhhhhhhhhhhhhhhhhhh5=$$:thhhhhhhhhhhhhhhhhhhhhhhhhhhhhhhhhhhhhhhhhhh",
"hhhhhhhhhhhhhhhhhhhhhhhhhhhhhhhhhhhhhhhhhhhhhhhhhhhhhhhhhhhhhhhhhhhhhhhhhhhhhh,      ihhhhhhhhhhhhhhhhhhhhhhhhhhhhhhhhhhhhhhhhhh",
"hhhhhhhhhhhhhhhhhhhhhhhhhhhhhhhhhhhhhhhhhhhhhhhhhhhhhhhhhhhhhhhhhhhhhhhhhhhhh6       @shhhhhhhhhhhhhhhhhhhhhhhhhhhhhhhhhhhhhhhhh",
"hhhhhhhhhhhhhhhhhhhhhhhhhhhhhhhhhhhhhhhhhhhhhhhhhhhhhhhhhhhhhhhhhhhhhhhhhhhhg#        ,hhhhhhhhhhhhhhhhhhhhhhhhhhhhhhhhhhhhhhhhh",
"hhhhhhhhhhhhhhhhhhhhhhhhhhhhhhhhhhhhhhhhhhhhhhhhhhhhhhhhhhhhhhhhhhhhhhhhhhhh1         %hhhhhhhhhhhhhhhhhhhhhhhhhhhhhhhhhhhhhhhhh",
"hhhhhhhhhhhhhhhhhhhhhhhhhhhhhhhhhhhhhhhhhhhhhhhhhhhhhhhhhhhhhhhhhhhhhhhhhhhaX         $hhhhhhhhhhhhhhhhhhhhhhhhhhhhhhhhhhhhhhhhh",
"hhhhhhhhhhhhhhhhhhhhhhhhhhhhhhhhhhhhhhhhhhhhhhhhhhhhhhhhhhhhhhhhhhhhhhhhhhh:          1hhhhhhhhhhhhhhhhhhhhhhhhhhhhhhhhhhhhhhhhh",
"hhhhhhhhhhhhhhhhhhhhhhhhhhhhhhhhhhhhhhhhhhhhhhhhhhhhhhhhhhhhhhhhhhhhhhhhhhw          Oshhhhhhhhhhhhhhhhhhhhhhhhhhhhhhhhhhhhhhhhh",
"hhhhhhhhhhhhhhhhhhhhhhhhhhhhhhhhhhhhhhhhhhhhhhhhhhhhhhhhhhhhhhhhhhhhhhhhhh%          4hhhhhhhhhhhhhhhhhhhhhhhhhhhhhhhhhhhhhhhhhh",
"hhhhhhhhhhhhhhhhhhhhhhhhhhhhhhhhhhhhhhhhhhhhhhhhhhhhhhhhhhhhhhhhhhhhhhhhh3          =hhhhhhhhhhhhhhhhhhhhhhhhhhhhhhhhhhhhhhhhhhh",
"hhhhhhhhhhhhhhhhhhhhhhhhhhhhhhhhhhhhhhhhhhhhhhhhhhhhhhhhhhhhhhhhhhhhhhhhd@         othhhhhhhhhhhhhhhhhhhhhhhhhhhhhhhhhhhhhhhhhhh",
"hhhhhhhhhhhhhhhhhhhhhhhhhhhhhhhhhhhhhhhhhhhhhhhhhhhhhhhhhhhhhhhhhhhhhhhh>          <hhhhhhhhhhhhhhhhhhhhhhhhhhhhhhhhhhhhhhhhhhhh",
"hhhhhhhhhhhhhhhhhhhhhhhhhhhhhhhhhhhhhhhhhhhhhhhhhhhhhhhhhhhhhhhhhhhhhhhe          $hhhhhhhhhhhhhhhhhhhhhhhhhhhhhhhhhhhhhhhhhhhhh",
"hhhhhhhhhhhhhhhhhhhhhhhhhhhhhhhhhhhhhhhhhhhhhhhhhhhhhhhhhhhhhhhhhhhhhhh%          whhhhhhhhhhhhhhhhhhhhhhhhhhgpw61,,5hhhhhhhhhhh",
"hhhhhhhhhhhhhhhhhhhhhhhhhhhhhhhhhhhhhhhhhhhhhhhhhhhhhhhhhhhhhhhhhhhhhh3          >hhhhhhhhhhhhhhhhhhhaw5<:=#.        =hhhhhhhhhh",
"hhhhhhhhhhhhhhhhhhhhhhhhhhhhhhhhhhhhhhhhhhhhhhhhhhhhhhhhhhhhhhhhhhhhhaO         #fhhhhhhhhhhhhhhw,$O                  hhhhhhhhhh",
"hhhhhhhhhhhhhhhhhhhhhhhhhhhhhhhhhhhhhhhhhhhhhhhhhhhhhhhhhhhhhhhhhhhhh:          6hhhhhhhhae8<-#                      =hhhhhhhhhh",
"hhhhhhhhhhhhhhhhhhhhhhhhhhhhhhhhhhhhhhhhhhhhhhhhhhhhhhhhhhhhhhhhhhhhq          -r5>=$@Xo                      X+=:,,5hhhhhhhhhhh",
"hhhhhhhhhhhhhhhhhhhhhhhhhhh,$,,,3qughhhhhhhhhhhhhhhhhhhhhhhhhhhhhhhf$                                 @%-<5wpghhhhhhhhhhhhhhhhhh",
"hhhhhhhhhhhhhhhhhhhhhhhhhi$         oX@+$$$$$$$$$$$$$$+##@@OOXXXXXX                           O#=>5eshhhhhhhhhhhhhhhhhhhhhhhhhhh",
"hhhhhhhhhhhhhhhhhhhhhhhhh-                                                             o#=<9phhhhhhhhhhhhhhhhhhhhhhhhhhhhhhhhhhh",
"hhhhhhhhhhhhhhhhhhhhhhhhh$                                                      o+-<6rdhhhhhhhhhhhhhhhhhhhhhhhhhhhhhhhhhhhhhhhhh",
"hhhhhhhhhhhhhhhhhhhhhhhhh$                                                  #10ahhhhhhhhhhhhhhhhhhhhhhhhhhhhhhhhhhhhhhhhhhhhhhhh",
"hhhhhhhhhhhhhhhhhhhhhhhhh4                                  X#$=-#         Xshhhhhhhhhhhhhhhhhhhhhhhhhhhhhhhhhhhhhhhhhhhhhhhhhhh",
"hhhhhhhhhhhhhhhhhhhhhhhhhh,@    .O#$$$$$$$$$$$$$%->,1359qtshhhhht          ,hhhhhhhhhhhhhhhhhhhhhhhhhhhhhhhhhhhhhhhhhhhhhhhhhhhh",
"hhhhhhhhhhhhhhhhhhhhhhhhhhhhhhhhhhhhhhhhhhhhhhhhhhhhhhhhhhhhhhhh-         Xshhhhhhhhhhhhhhhhhhhhhhhhhhhhhhhhhhhhhhhhhhhhhhhhhhhh",
"hhhhhhhhhhhhhhhhhhhhhhhhhhhhhhhhhhhhhhhhhhhhhhhhhhhhhhhhhhhhhhh0          ,hhhhhhhhhhhhhhhhhhhhhhhhhhhhhhhhhgatw34thhhhhhhhhhhhh",
"hhhhhhhhhhhhhhhhhhhhhhhhhhhhhhhhhhhhhhhhhhhhhhhhhhhhhhhhhhhhhhh&         @dhhhhhhhhhhhhhhhhhhhhhhhhhht2,,-$.      o3hhhhhhhhhhhh",
"hhhhhhhhhhhhhhhhhhhhhhhhhhhhhhhhhhhhhhhhhhhhhhhhhhhhhhhhhhhhhhho         4hhhhhhhhhhhhhhhhhhhhha8>-@                6hhhhhhhhhhh",
"hhhhhhhhhhhhhhhhhhhhhhhhhhhhhhhhhhhhhhhhhhhhhhhhhhhhhhhhhhhhhhh         %hhhhhhhhhhhhhhhhhq,:%X                      ihhhhhhhhhh",
"hhhhhhhhhhhhhhhhhhhhhhhhhhhhhhhhhhhhhhhhhhhhhhhhhhhhhhhhhhhhhhh#        5hhhhhhhhhhhhhgw,O                           ,hhhhhhhhhh",
"hhhhhhhhhhhhhhhhhhhhhhhhhhhhhhhhhhhhhhhhhhhhhhhhhhhhhhhhhhhhhhh,       $hhhhhhhhgpw2-#                               +hhhhhhhhhh",
"hhhhhhhhhhhhhhhhhhhhhhhhhhhhhhhhhhhhhhhhhhhhhhhhhhhhhhhhhhhhhhhh=     #uhhhht1$X                                     #hhhhhhhhhh",
"hhhhhhhhhhhhhhhhhhhhhhhhhhhhhhhhhhhhhhhhhhhhhhhhhhhhhhhhhhhhhhhhh,$ #:at5:$                                          %hhhhhhhhhh",
"hhhhhhhhhhhhhhhhhhhhhhhhhhhhhhhhhhhhhhhhhhhhhhhhhhhhhhhhhhhhdaueq72,=@                                               <hhhhhhhhhh",
"hhhhhhhhhhhhhhhhhhhhhhhhhhhhhhhhhhhhhhhhhhfsptw952,:-=$#@Xo                                                          ehhhhhhhhhh",
"hhhhhhhhhhhhhhhhhh9%  O$&->,,,,28w3>=$#@.                                                                            phhhhhhhhhh",
"hhhhhhhhhhhhhhh0%o                                                                                  X$#  o+=,4q#     dhhhhhhhhhh",
"hhhhhhhhhhhhhh8                                               o@$=:><2469qydhhhsw0,%X  O-8wwwifhhhhhhhhhhhhhhhh%     hhhhhhhhhhh",
"hhhhhhhhhhhhhu                                       o#%:,4qudhhhhhhhhhhhhhhhhhhhh-      4hhhhhhhhhhhhhhhhhhhhh-    ohhhhhhhhhhh",
"hhhhhhhhhhhhh,                                X=:29tdhhhhhhhhhhhhhhhhhhhhhhhhhhhh-        ehhhhhhhhhhhhhhhhhhhh>    Ohhhhhhhhhhh",
"hhhhhhhhhhhhh,                                 0hhhhhhhhhhhhhhhhhhhhhhhhhhhhhhhh%         -hhhhhhhhhhhhhhhhhhhh2    @hhhhhhhhhhh",
"hhhhhhhhhhhhh,          oO#%=:>26wwwww8         thhhhhhhhhhhhhhhhhhhhhhhhhhhhhh+          $hhhhhhhhhhhhhhhhhhhh9    +hhhhhhhhhhh",
"hhhhhhhhhhhhh3         yhhhhhhhhhhhhhh2          fhhhhhhhhhhhhhhhhhhhhhhhhhhhhO           %hhhhhhhhhhhhhhhhhhhhw    $hhhhhhhhhhh",
"hhhhhhhhhhhhh9         qhhhhhhhhhhhhhh9           hhhhhhhhhhhhhhhhhhhhhhhhhhho            3hhhhhhhhhhhhhhhhhhhhw    $hhhhhhhhhhh",
"hhhhhhhhhhhhhy         6hhhhhhhhhhhhhhh#           hhhhhhhhhhhhhhhhhhhhhhhhh             @dhhhhhhhhhhhhhhhhhhhhw    $hhhhhhhhhhh",
"hhhhhhhhhhhhhg         2hhhhhhhhhhhhhhh3            hhhhhhhhhhhhhhhhhhhhhhh             @ihhhhhhhhhhhhhhhhhhhhhw    $hhhhhhhhhhh",
"hhhhhhhhhhhhhh@        ,hhhhhhhhhhhhhhhh9.           hhhhhhhhhhhhhhhhhhhhh             :ahhhhhhhhhhhhhhhhhhhhhhw    $hhhhhhhhhhh",
"hhhhhhhhhhhhhh&        :hhhhhhhhhhhhhhhhhr$           dhhhhhhhhhhhhhhhhhh            $0hhhhhhhhhhhhhhhhhhhhhhhhw    $hhhhhhhhhhh",
"hhhhhhhhhhhhhh<        =hhhhhhhhhhhhhhhhhhg>           thhhhhhhhhhhhhhhh            >hhhhhhhhhhhhhhhhhhhhhhhhhhw    $hhhhhhhhhhh",
"hhhhhhhhhhhhhhq        %hhhhhhhhhhhhhhhhhhhh9#          0hhhhhhhhhhhhhh@          @9hhhhhhhhhhhhhhhhhhhhhhhhhhhw    $hhhhhhhhhhh",
"hhhhhhhhhhhhhhf        #hhhhhhhhhhhhhhhhhhhhhd:          2hhhhhhhhhhhh$          =ahhhhhhhhhhhhhhhhhhhhhhhhhhhhr    $hhhhhhhhhhh",
"hhhhhhhhhhhhhhh@       .hhhhhhhhhhhhhhhhhhhhhhh7@         :hhhhhhhhhh$          ;r93,-&$=3thhhhhhhhhhhhhhhhhhhhi    $hhhhhhhhhhh",
"hhhhhhhhhhhhhhh-        hhhhhhhhhhhhhhhhhhhhhhhha-         $9hhhhhhh=                     X8hhhhhhhhhhhhhhhhhhhs    $hhhhhhhhhhh",
"hhhhhhhhhhhhhhh3        ahhhhhhhhhhhhhhhhhhhhhhhhh4X         =hhhhhr                        rhhhhhhhhhhhhhhhhhhf    $hhhhhhhhhhh",
"hhhhhhhhhhhhhhht        rhhhhhhhhhhhhhhhhhhhhhhhhhhu=         $>:-%O                        :hhhhhhhhhhhhhhhhhhh    $hhhhhhhhhhh",
"hhhhhhhhhhhhhhhh        0hhhhhhhhhhhhhhhhhhhhhhhhhhhh2o                                     $hhhhhhhhhhhhhhhhhhd    &hhhhhhhhhhh",
"hhhhhhhhhhhhhhhh$       3hhhhhhhhhhhhhhhhhhhhhhhhhs0,%.                                     $hhhhhhhhhhhhhhhhhhi    -hhhhhhhhhhh",
"hhhhhhhhhhhhhhhh>       ,hhhhhhhhhhhhhawwq52>:=$@o                                          9hhhhhhhhhhhhhhhhhhq    :hhhhhhhhhhh",
"hhhhhhhhhhhhhhhh9       :hhhhhhhhhhhg:                                                     =hhhhhhhhhhhhhhhhhhh5    >hhhhhhhhhhh",
"hhhhhhhhhhhhhhhhs       -hhhhhhhhhhh                                                      =ahhhhhhhhhhhhhhhhhhh1    ,hhhhhhhhhhh",
"hhhhhhhhhhhhhhhhh       &hhhhhhhhhh:                                         #$X   O+%->,ehhhhhhhhhhhhhhhhhhhhh>    ,hhhhhhhhhhh",
"hhhhhhhhhhhhhhhhho      $hhhhhhhhhh@                                  ,hhhhhhhhhhhhhhhhhhhhhhhhhhhhhhhhhhhhhhhh-    ,hhhhhhhhhhh",
"hhhhhhhhhhhhhhhhho      @hhhhhhhhhh                         #=&       $hhhhhhhhhhhhhhhhhhhhhhhhhhhhhhhhhhhhhhhh%    ,hhhhhhhhhhh",
"hhhhhhhhhhhhhhhhh       ohhhhhhhhhh.               .$=->20ahhh,       $hhhhhhhhhhhhhhhhhhhhhhhhhhhhhhhhhhhhhhhh#    ,hhhhhhhhhhh",
"hhhhhhhhhhhhhhhhh        ghhhhhhhhh>           #:6ahhhhhhhhhhh4       -hhhhhhhhhhhhhhhhhhhhhhhhhhhhhhhhhhhhhhhhX    :hhhhhhhhhhh",
"hhhhhhhhhhhhhhhhf        dhhhhhhhhhh=      .=5ahhhhhhhhhhhhhhhw       ,hhhhhhhhhhhhhhhhhhhhhhhhhhhhhhhhhhhhhhhh     -hhhhhhhhhhh",
"hhhhhhhhhhhhhhhha        phhhhhhhhhhh3&o+>9dhhhhhhhhhhhhhhhhhht       2hhhhhhhhhhhhhhhhhhhhhhhhhhhhhhhhhhhhhhha     &hhhhhhhhhhh",
"hhhhhhhhhhhhhhhhi        thhhhhhhhhhhhhhhhhhhhhhhhhhhhhhhhhhhha       5hhhhhhhhhhhhhhhhhhhhhhhhhhhhhhhhhhhhhhhr     $hhhhhhhhhhh",
"hhhhhhhhhhhhhhhhr        whhhhhhhhhhhhhhhhhhhhhhhhhhhhhhhhhhhhf       0hhhhhhhhhhhhhhhhhhhhhhhhhhhhhhhhhhhhhhh9     &hhhhhhhhhhh",
"hhhhhhhhhhhhhhhhw        thhhhhhhhhhhhhhhhhhhhhhhhhhhhhhhhhhhhho      rhhhhhhhhhhhhhhhhhhhhhhhhhhhhhhhhhhhhhhh3     =hhhhhhhhhhh",
"hhhhhhhhhhhhhhhh3        phhhhhhhhhhhhhhhhhhhhhhhhhhhhhhhhhhhhh@      ahhhhhhhhhhhhhhhhhhhhhhhhhhhhhhhhhhhhhhh>     -hhhhhhhhhhh",
"hhhhhhhhhhhhhhhh:        shhhhhhhhhhhhhhhhhhhhhhhhhhhhhhhhhhhhh$      hhhhhhhhhhhhhhhhhhhhhhhhhhhhhhhhhhhhhhhh-     :hhhhhhhhhhh",
"hhhhhhhhhhhhhhhh&        fhhhhhhhhhhhhhhhhhhhhhhhhhhhhhhhhhhhhh=     .hhhhhhhhhhhhhhhhhhhhhhhhhhhhhhhhhhhhhhhh*     >hhhhhhhhhhh",
"hhhhhhhhhhhhhhhh+        hhhhhhhhhhhhhhhhhhhhhhhhhhhhhhhhhhhhhh:     #hhhhhhhhhhhhhhhhhhhhhhhhhhhhhhdr52thhhhh$     ,hhhhhhhhhhh",
"hhhhhhhhhhhhhhhh@       +hhhhhhhhhhhhhhhhhhhhhhhhhhhhhhhhhhhhhh,     $hhhhhhhhhhhhhhhhhhhhhhhhht3:+.     =hhhh@     ,hhhhhhhhhhh",
"hhhhhhhhhhhhhhhf        :hhhhhhhhhhhhhhhhhhhhhhhhhhhhhhhhhhhhhh,     $hhhhhhhhhhhhhhhhhhhhs5:$            =hhho     ,hhhhhhhhhhh",
"hhhhhhhhhhhhhhh6        2hhhhhhhhhhhhhhhhhhhhhhhhhhhhhhhhhhhhhh,     $hhhhhhhhhhhhhhhha7-#                 ghd      ,hhhhhhhhhhh",
"hhhhhhhhhhhhhhh:        qhhhhhhhhhhhhhhhhhhhhhhhhhhhhhhhhhhhhhh,     $hhhhhhhhhhhhhr,=                     whi      ,hhhhhhhhhhh",
"hhhhhhhhhhhhhhh#        thhhhhhhhhhhhhhhhhhhhhhhhhhhhhhhhhhhhhh,     $hhhhhhhha0<=@                        whq      ,hhhhhhhhhhh",
"hhhhhhhhhhhhhhf         ahhhhhhhhhhhhhhhhhhhhhhhhhhhhhhhhhhhhhh,     $hhht2-$.                             sh5      ,hhhhhhhhhhh",
"hhhhhhhhhhhhhhy         fhhhhhhhhhhhhhhhhhhhhhhhhhhgstwwwwww93,+                                          ,hh1      ,hhhhhhhhhhh",
"hhhhhhhhhhhhhh5        ohhhhhhhhhhhhwwwww952,:%$$@o                                                      1hhh:      ,hhhhhhhhhhh",
"hhhhhhhhhhhhhh%        @hhhhhhhhhu&                                                                o%,,wshhhh=      1hhhhhhhhhhh",
"hhhhhhhhhhhhh5         $hhhhhhhhs@                                                         O#%->3wahhhhhhhhhh$      2hhhhhhhhhhh",
"hhhhhhhhhhhhh=         <hhhhhhhh,                                        o@$$%->26wwighhhhhhhhhhhhhhhhhhhhhhh@      4hhhhhhhhhhh",
"hhhhhhhhhhhhi          qhhhhhhhh$                                    -8rdhhhhhhhhhhhhhhhhhhhhhhhhhhhhhhhhhhhh.      5hhhhhhhhhhh",
"hhhhhhhhhhhh,         Xghhhhhhhh=                     O=>3wifhh,     uhhhhhhhhhhhhhhhhhhhhhhhhhhhhhhhhhhhhhhh       9hhhhhhhhhhh",
"hhhhhhhhhhhh+         -hhhhhhhhh4               O%->9shhhhhhhhh,     fhhhhhhhhhhhhhhhhhhhhhhhhhhhhhhhhhhhhhha       0hhhhhhhhhhh",
"hhhhhhhhhhhr          5hhhhhhhhhh=       $-<5epghhhhhhhhhhhhhhh,    ohhhhhhhhhhhhhhhhhhhhhhhhhhhhhhhhhhhhhhhr       whhhhhhhhhhh",
"hhhhhhhhhhh-         Xfhhhhhhhhhhh9$$=>0ghhhhhhhhhhhhhhhhhhhhhh,    @hhhhhhhhhhhhhhhhhhhhhhhhhhhhhhhhhhhhhhh9       whhhhhhhhhhh",
"hhhhhhhhhhs          :hhhhhhhhhhhhhhhhhhhhhhhhhhhhhhhhhhhhhhhhh,    $hhhhhhhhhhhhhhhhhhhhhhhhhhhhhhhhhhhhhhh3       whhhhhhhhhhh",
"hhhhhhhhhhw          0hhhhhhhhhhhhhhhhhhhhhhhhhhhhhhhhhhhhhhhhh,    $hhhhhhhhhhhhhhhhhhhhhhhhhhhhhhhhhhhhhhh>       whhhhhhhhhhh",
"hhhhhhhhhhw         #hhhhhhhhhhhhhhhhhhhhhhhhhhhhhhhhhhhhhhhhhh,    $hhhhhhhhhhhhhhhhhhhhhhhhhhhhhhhhhhhhhhh-       whhhhhhhhhhh",
"hhhhhhhhhhd         >hhhhhhhhhhhhhhhhhhhhhhhhhhhhhhhhhhhhhhhhhh,    $hhhhhhhhhhhhhhhhhhhhhhhhhhhhhhhhhhhhhhh%       whhhhhhhhhhh",
"hhhhhhhhhhh-       .thhhhhhhhhhhhhhhhhhhhhhhhhhhhhhhhhhhhhhhhhh:    %hhhhhhhhhhhhhhhhhhhhhhhhhhhhhhhhhhhhhhh#       whhhhhhhhhhh",
"hhhhhhhhhhhr       5hhhhhhhhhhhhhhhhhhhhhhhhhhhhhhhhhhhhhhhhhhh=    -hhhhhhhhhhhhhhhhhhhhhhhhhhhhhhhhhhhhhhhX       whhhhhhhhhhh",
"hhhhhhhhhhhhr=   #3hhhhhhhhhhhhhhhhhhhhhhhhhhhhhhhhhhhhhhhhhhhh%    :hhhhhhhhhhhhhhhhhhhhhhhhhhhhhhhhhhhhhhh        whhhhhhhhhhh",
"hhhhhhhhhhhhhhswwhhhhhhhhhhhhhhhhhhhhhhhhhhhhhhhhhhhhhhhhhhhhhh$    <hhhhhhhhhhhhhhhhhhhhhhhhhhhhhhhhhhhhhhd        whhhhhhhhhhh",
"hhhhhhhhhhhhhhhhhhhhhhhhhhhhhhhhhhhhhhhhhhhhhhhhhhhhhhhhhhhhhhh@    2hhhhhhhhhhhhhhhhhhhhhhhhhhhhhhhhhhhhhhi        whhhhhhhhhhh",
"hhhhhhhhhhhhhhhhhhhhhhhhhhhhhhhhhhhhhhhhhhhhhhhhhhhhhhhhhhhhhhhX    3hhhhhhhhhhhhhhhhhhhhhhhhhhhhhhhhhhhhhhq        whhhhhhhhhhh",
"hhhhhhhhhhhhhhhhhhhhhhhhhhhhhhhhhhhhhhhhhhhhhhhhhhhhhhhhhhhhhhho    8hhhhhhhhhhhhhhhhhhhhhhhhhhhhhhhhhhhhhh5        whhhhhhhhhhh",
"hhhhhhhhhhhhhhhhhhhhhhhhhhhhhhhhhhhhhhhhhhhhhhhhhhhhhhhhhhhhhhh     9hhhhhhhhhhhhhhhhhhhhhhhhhhhhhhhhhhhhhh1        whhhhhhhhhhh",
"hhhhhhhhhhhhhhhhhhhhhhhhhhhhhhhhhhhhhhhhhhhhhhhhhhhhhhhhhhhhhhs     qhhhhhhhhhhhhhhhhhhhhhhhhhhhhhhhhhhhhhh:        whhhhhhhhhhh",
"hhhhhhhhhhhhhhhhhhhhhhhhhhhhhhhhhhhhhhhhhhhhhhhhhhhhhhhhhhhhhht     thhhhhhhhhhhhhhhhhhhhhhhhhhhhhhhhhhhhhh=        whhhhhhhhhhh",
"hhhhhhhhhhhhhhhhhhhhhhhhhhhhhhhhhhhhhhhhhhhhhhhhhhhhhhhhhhhhhhw     ahhhhhhhhhhhhhhhhhhhhhhhhhhhhhhhhhhhhhh$        whhhhhhhhhhh",
"hhhhhhhhhhhhhhhhhhhhhhhhhhhhhhhhhhhhhhhhhhhhhhhhhhhhhhhhhhhhhhw     fhhhhhhhhhhhhhhhhhhhhhhhhhhhhhhhhhhha8,.        whhhhhhhhhhh",
"hhhhhhhhhhhhhhhhhhhhhhhhhhhhhhhhhhhhhhhhhhhhhhhhhhhhhhhhhhhhhh8    ohhhhhhhhhhhhhhhhhhhhhhhhhhhhhhhhhhh8            whhhhhhhhhhh",
"hhhhhhhhhhhhhhhhhhhhhhhhhhhhhhhhhhhhhhhhhhhhhhhhhhhhhhhhhhhhhh,    @hhhhhhhhhhhhhhhhhhhhhhhhhhhhhhhhhhtX            0hhhhhhhhhhh",
"hhhhhhhhhhhhhhhhhhhhhhhhhhhhhhhhhhhhhhhhhhhhhhhhhhhhhhhhhhhhhh5    -hhhhhhhhhhhhhhhhhhhhhhhhhhhhhhhhhh,             6hhhhhhhhhhh",
"hhhhhhhhhhhhhhhhhhhhhhhhhhhhhhhhhhhhhhhhhhhhhhhhhhhhhhhhhhhhhhd&   0hhhhhhhhhhhhhhhhhhhhhhhhhhhhhhhhhh&             3hhhhhhhhhhh",
"hhhhhhhhhhhhhhhhhhhhhhhhhhhhhhhhhhhhhhhhhhhhhhhhhhhhhhhhhhhhhhhh1,phhhhhhhhhhhhhhhhhhhhhhhhhhhhhhhhhhh$             1hhhhhhhhhhh",
"hhhhhhhhhhhhhhhhhhhhhhhhhhhhhhhhhhhhhhhhhhhhhhhhhhhhhhhhhhhhhhhhhhhhhhhhhhhhhhhhhhhhhhhhhhhhhhhhhhhhhh6             <hhhhhhhhhhh",
"hhhhhhhhhhhhhhhhhhhhhhhhhhhhhhhhhhhhhhhhhhhhhhhhhhhhhhhhhhhhhhhhhhhhhhhhhhhhhhhhhhhhhhhhhhhhhhhhhhhhhhh+            6hhhhhhhhhhh",
"hhhhhhhhhhhhhhhhhhhhhhhhhhhhhhhhhhhhhhhhhhhhhhhhhhhhhhhhhhhhhhhhhhhhhhhhhhhhhhhhhhhhhhhhhhhhhhhhhhhhhhhq            whhhhhhhhhhh",
"hhhhhhhhhhhhhhhhhhhhhhhhhhhhhhhhhhhhhhhhhhhhhhhhhhhhhhhhhhhhhhhhhhhhhhhhhhhhhhhhhhhhhhhhhhhhhhhhhhhhhhhh1           whhhhhhhhhhh",
"hhhhhhhhhhhhhhhhhhhhhhhhhhhhhhhhhhhhhhhhhhhhhhhhhhhhhhhhhhhhhhhhhhhhhhhhhhhhhhhhhhhhhhhhhhhhhhhhhhhhhhhhh-          whhhhhhhhhhh"
};
