/* XPM */
static char *_b41f77e7afb4e5cf6d1658fd61a2c64IVbyTq6RISGuyjuN[] = {
/* columns rows colors chars-per-pixel */
"128 128 44 1 ",
"  c #E90E07",
". c #E90808",
"X c #EB1507",
"o c #EC1B07",
"O c #EA1208",
"+ c #EC1E08",
"@ c #EC2407",
"# c #ED2C07",
"$ c #EC2308",
"% c #ED2908",
"& c #EF3507",
"* c #EF3A07",
"= c #F03D07",
"- c #EF4007",
"; c #F04406",
": c #F14C07",
"> c #F25407",
", c #F35C06",
"< c #F46106",
"1 c #F56606",
"2 c #F56A06",
"3 c #F66C05",
"4 c #F67305",
"5 c #F77605",
"6 c #F77B06",
"7 c #F77D06",
"8 c #F87B06",
"9 c #F87F06",
"0 c #F88106",
"q c #F98505",
"w c #F98905",
"e c #F98D05",
"r c #FA9105",
"t c #FA9405",
"y c #FB9805",
"u c #FB9F04",
"i c #FC9C04",
"p c #FCA104",
"a c #FCA404",
"s c #FDA805",
"d c #FDAC05",
"f c #FEB104",
"g c #FEB404",
"h c #FFBA04",
/* pixels */
"hhhhhhhhhhhhhhhhhhhhhhhhhhhhhhhhhhhhhhhhhhhhhhhhhhhhhhhhhhhhhhhhhhhhhhhhhhhhhhhhhhhhhhhhhhhhhhhhhhhhhhhhhhhhhhhhhhhhhhhhhhhhhhhh",
"hhhhhhhhhhhhhhhhhhhhhhhhhhhhhhhhhhhhhhhhhhhhhhhhhhhhhhhhhhhhhhhhhhhhhhhhhhhhhhhhhhhhhhhhhhhhhhhhhhhhhhhhhhhhhhhhhhhhhhhhhhhhhhhh",
"hhhhhhhhhhhhhhhhhhhhhhhhhhhhhhhhhhhhhhhhhhhhhhhhhhhhhhhhhhhhhhhhhhhhhhhhhhhhhhhhhhhhhhhhhhhhhhhhhhhhhhhhhhhhhhhhhhhhhhhhhhhhhhhh",
"hhhhhhhhhhhhhhhhhhhhhhhhhhhhhhhhhhhhhhhhhhhhhhhhhhhhhhhhhhhhhhhhhhhhhhhhhhhhhhhhhhhhhhhhhhhhhhhhhhhhhhhhhhhhhhhhhhhhhhhhhhhhhhhh",
"hhhhhhhhhhhhhhhhhhhhhhhhhhhhhhhhhhhhhhhhhhhhhhhhhhhhhhhhhhhhhhhhhhhhhhhhhhhhhhhhhhhhhhhhhhhhhhhhhhhhhhhhhhhhhhhhhhhhhhhhhhhhhhhh",
"hhhhhhhhhhhhhhhhhhhhhhhhhhhhhhhhhhhhhhhhhhhhhhhhhhhhhhhhhhhhhhhhhhhhhhhhhhhhhhhhhhhhhhhhhhhhhhhhhhhhhhhhhhhhhhhhhhhhhhhhhhhhhhhh",
"hhhhhhhhhhhhhhhhhhhhhhhhhhhhhhhhhhhhhhhhhhhhhhhhhhhhhhhhhhhhhhhhhhhhhhhhhhhhhhhhhhhhhhhhhhhhhhhhhhhhhhhhhhhhhhhhhhhhhhhhhhhhhhhh",
"hhhhhhhhhhhhhhhhhhhhhhhhhhhhhhhhhhhhhhhhhhhhhhhhhhhhhhhhhhhhhhhhhhhhhhhhhhhhhhhhhhhhhhhhhhhhhhhhhhhhhhhhhhhhhhhhhhhhhhhhhhhhhhhh",
"hhhhhhhhhhhhhhhhhhhhhhhhhhhhhhhhhhhhhhhhhhhhhhhhhhhhhhhhhhhhhhhhhhhhhhhhhhhhhhhhhhhhhhhhhhhhhhhhhhhhhhhhhhhhhhhhhhhhhhhhhhhhhhhh",
"hhhhhhhhhhhhhhhhhhhhhhhhhhhhhhhhhhhhhhhhhhhhhhhhhhhhhhhhhhhhhhhhhhhhhhhhhhhhhhhhhhhhhhhhhhhhhhhhhhhhhhhhhhhhhhhhhhhhhhhhhhhhhhhh",
"hhhhhhhhhhhhhhhhhhhhhhhhhhhhhhhhhhhhhhhhhhhhhhhhhhhhhhhhhhhhhhhhhhhhhhhhhhhhhhhhhhhhhhhhhhhhhhhhhhhhhhhhhhhhhhhhhhhhhhhhhhhhhhhh",
"hhhhhhhhhhhhhhhhhhhhhhhhhhhhhhhhhhhhhhhhhhhhhhhhhhhhhhhhhhhhhhhhhhhhhhhhhhhhhhhhhhhhhhhhhhhhhhhhhhhhhhhhhhhhseehhhhhhhhhhhhhhhhh",
"hhhhhhhhhhhhhhhhhhhhhhhhhhhhhhhhhhhhhhhhhhhhhhhhhhhhhhhhhhhhhhhhhhhhhhhhhhhhhhhhhhhhhhhhhhhhhhhhhhhhhhhsw2;+...;qhhhhhhhhhhhhhhh",
"hhhhhhhhhhhhhhhhhhhhhhhhhhhhhhhhhhhhhhhhhhhhhhhhhhhhhhhhhhhhhhhhhhhhhhhhhhhhhhhhhhhhhhhhhhhhhhhhhhp3;%O..........<hhhhhhhhhhhhhh",
"hhhhhhhhhhhhhhhhhhhhhhhhhhhhhhhhhhhhhhhhhhhhhhhhhhhhhhhhhhhhhhhhhhhhhhhhhhhhhhhhhhhhhhhhhhhhhaq2;+...............Ofhhhhhhhhhhhhh",
"hhhhhhhhhhhhhhhhhhhhhhhhhhhhhhhhhhhhhhhhhhhhhhhhhhhhhhhhhhhhhhhhhhhhhhhhhhhhhhhhhhhhdee03>=$ .....................<hhhhhhhhhhhhh",
"hhhhhhhhhhhhhhhhhhhhhhhhhhhhhhhhhhhhhhhhhhhhhhhhhhhhhhhhhhhhhhhhhhhhhhhhhhhhhhhhhhh:O.............................<hhhhhhhhhhhhh",
"hhhhhhhhhhhhhhhhhhhhhhhhhhhhhhhhhhhhhhhhhhhhhhhhhhhhhhhhhhhhhhhhhhhhhhhhhhhhhhhhu5................................0hhhhhhhhhhhhh",
"hhhhhhhhhhhhhhhhhhhhhhhhhhhhhhhhhhhhhhhhhhhhhhhhhhhhhhhhhhhhhhhhhhhhhhhhhhhhsq:X..................................ahhhhhhhhhhhhh",
"hhhhhhhhhhhhhhhhhhhhhhhhhhhhhhhhhhhhhhhhhhhhhhhhhhhhhhhhhhhhhhhhhhhhhhi5,;&o.....................................<hhhhhhhhhhhhhh",
"hhhhhhhhhhhhhhhhhhhhhhhhhhhhhhhhhhhhhhhhhhhhhhhhhhhhhhstw06431,>;*&$o .........................................%6hhhhhhhhhhhhhhh",
"hhhhhhhhhhhhhhhhhhhhhhhhhhhhhhhhhhhhhhhhhhhhsyq4<>;&$ ....................................................o*:,9hhhhhhhhhhhhhhhhh",
"hhhhhhhhhhhhhhhhhhhhhhhhheee052,>:;=&#%$oX ........................................................&,<<5edhhhhhhhhhhhhhhhhhhhhhh",
"hhhhhhhhhhhhhhhhhhhhhh4#......................................................................&>4ehhhhhhhhhhhhhhhhhhhhhhhhhhhhhh",
"hhhhhhhhhhhhhhhhhhhhh<...............................................O....$<<;&&&;=.......&>0fhhhhhhhhhhhhhhhhhhhhhhhhhhhhhhhhhh",
"hhhhhhhhhhhhhhhhhhhhfo.........................................+;,7y;......<hhhhhhhy;&*,qshhhhhhhhhhhhhhhhhhhhhhhhhhhhhhhhhhhhhh",
"hhhhhhhhhhhhhhhhhhhhe...................................X:,5wughhhhq.......ofhhhhhhhhhhhhhhhhhhhhhhhhhhhhhhhhhhhhhhhhhhhhhhhhhhh",
"hhhhhhhhhhhhhhhhhhhhe....................................hhhhhhhhhh<........0hhhhhhhhhhhhhhhhhhhhhhhhhhhhhhhhhhhhhhhhhhhhhhhhhhh",
"hhhhhhhhhhhhhhhhhhhhf+...................+*>26e>.........ehhhhhhhhh<........<hhhhhhhhhhhhhhhhhhhhhhhhhhhhhhhhhhhhhhhhhhhhhhhhhhh",
"hhhhhhhhhhhhhhhhhhhhh9............o&:10ighhhhhhe.........ehhhhhhhhh2........2hhhhhhhhhhhhhhhhhhhhhhhhhhhhhhhhhhhhhhhhhhhhhhhhhhh",
"hhhhhhhhhhhhhhhhhhhhhh9$...o=>20yfhhhhhhhhhhhhhg.........ehhhhhhhhh6........6hhhhhhhhhhhhhhhhhhhhhhhhhhhhhhhhhhhhhhhhhhhhhhhhhhh",
"hhhhhhhhhhhhhhhhhhhhhhhhpeshhhhhhhhhhhhhhhhhhhhh%........ehhhhhhhhhw........whhhhhhhhhhhhhhhhhhhhhhhhhhhhhhhhhhhhhhhhhhhhhhhhhhh",
"hhhhhhhhhhhhhhhhhhhhhhhhhhhhhhhhhhhhhhhhhhhhhhhh>........ehhhhhhhhhr........thhhhhhhhhhhhhhhhhhhhhhhhhhhhhhhhhhhhhhhhhhhhhhhhhhh",
"hhhhhhhhhhhhhhhhhhhhhhhhhhhhhhhhhhhhhhhhhhhhhhhh5........ehhhhhhhhhy........phhhhhhhhhhhhhhhhhhhhhhhhhhhhhhhhhhhhhhhhhhhhhhhhhhh",
"hhhhhhhhhhhhhhhhhhhhhhhhhhhhhhhhhhhhhhhhhhhhhhhhu........ehhhhhhhhhu........dhhhhhhhhhhhhhhhhhhhhhhhhhhhhhhhhhhhhhhhhhhhhhhhhhhh",
"hhhhhhhhhhhhhhhhhhhhhhhhhhhhhhhhhhhhhhhhhhhhhhhhhO.......0hhhhhhhhha........hhhhhhhhhhhhhhhhhhhhhhhhhhhhhhhhhhhhhhhhhhhhhhhhhhhh",
"hhhhhhhhhhhhhhhhhhhhhhhhhhhhhhhhhhhhhhhhhhhhhhhhh*.......8hhhhhhhhhs.......Ohhhhhhhhhhhhhhhhhhhhhhhhhhhhhhhhhhhhhhhhhhhhhhhhhhhh",
"hhhhhhhhhhhhhhhhhhhhhhhhhhhhhhhhhhhhhhhhhhhhhhhhh1.......4hhhhhhhhhf.......$hhhhhhhhhhhhhhhhhhhhhhhhhhhhhhhhhhhhhhhhhhhhhhhhhhhh",
"hhhhhhhhhhhhhhhhhhhhhhhhhhhhhhhhhhhhhhhhhhhhhhhhhr.......2hhhhhhhhhg.......%hhhhhhhhhhhhhhhhhhhhhhhhhhhhhhhhhhhhhhhhhhhhhhhhhhhh",
"hhhhhhhhhhhhhhhhhhhhhhhhhhhhhhhhhhhhhhhhhhhhhhhhhh.......<hhhhhhhhhh.......*hhhhhhhhhhhhhhhhhhhhhhhhhhhhhhhhhhhhhhhhhhhhhhhhhhhh",
"hhhhhhhhhhhhhhhhhhhhhhhhhhhhhhhhhhhhhhhhhhhhhhhhhh$......:hhhhhhhhhh.......;hhhhhhhhhhhhhhhhhhhhhhhhhhhhhhhhhhhhhhhhhhhhhhhhhhhh",
"hhhhhhhhhhhhhhhhhhhhhhhhhhhhhhhhhhhhhhhhhhhhhhhhhh$......#hhhhhhhhhh.......:hhhhhhhhhhhhhhhhhhhhhhhhhhhhhhhhhhhhhhhhhhhhhhhhhhhh",
"hhhhhhhhhhhhhhhhhhhhhhhhhhhhhhhhhhhhhhhhhhhhhhhhhh$......Xhhhhhhhhhh.......,hhhhhhhhhhhhhhhhhhhhhhhhhhhhhhhhhhhhhhhhhhhhhhhhhhhh",
"hhhhhhhhhhhhhhhhhhhhhhhhhhhhhhhhhhhhhhhhhhhhhhhhhho.......fhhhhhhhhh.......1hhhhhhhhhhhhhhhhhhhhhhhhhhhhhhhhhhhhhhhhhhhhhhhhhhhh",
"hhhhhhhhhhhhhhhhhhhhhhhhhhhhhhhhhhhhhhhhhhhhhhhhhg........ahhhhhhhhh.......4hhhhhhhhhhhhhhhhhhhhhhhhhhhhhhhhhhhhhhhhhhhhhhhhhhhh",
"hhhhhhhhhhhhhhhhhhhhhhhhhhhhhhhhhhhhhhhhhhhhhhhhhu........thhhhhhhhh.......9hhhhhhhhhhhhhhhhhhhhhhhhhhhhhhhhhhhhhhhhhhhhhhhhhhhh",
"hhhhhhhhhhhhhhhhhhhhhhhhhhhhhhhhhhhhhhhhhhhhhhhhh0........qhhhhhhhhh.......whhhhhhhhhhhhhhhhhhhhhhhhhhhhhhhhhhhhhhhhhhhhhhhhhhhh",
"hhhhhhhhhhhhhhhhhhhhhhhhhhhhhhhhhhhhhhhhhhhhhhhhh2........5hhhhhhhhhO......ehhhhhhhhhhhhhhhhhhhhhhhhhhhhhhhhhhhhhhhhhhhhhhhhhhhh",
"hhhhhhhhhhhhhhhhhhhhhhhhhhhhhhhhhhhhhhhhhhhhhhhhh:........1hhhhhhhhh+......ehhhhhhhhhhhhhhhhhhhhhhhhhhhhhhhhhhhhhhhhhhhhhhhhhhhh",
"hhhhhhhhhhhhhhhhhhhhhhhhhhhhhhhhhhhhhhhhhhhhhhhhh&........>hhhhhhhhh%......ehhhhhhhhhhhhhhhhhhhhhhhhhhhhe<<uhhhhhhhhhhhhhhhhhhhh",
"hhhhhhhhhhhhhhhhhhhhhhhhhhhhhhhhhhhhhhhhhhhhhhhhho........;hhhhhhhhh&......ehhhhhhhhhhhhhhhhhhhhhhhhhhd*....<hhhhhhhhhhhhhhhhhhh",
"hhhhhhhhhhhhhhhhhhhhhhhhhhhhhhhhhhhhhhhhhhhhhhhhf.........*hhhhhhhhh&......ehhhhhhhhhhhhhhhhhhhhha9,*+.......3hhhhhhhhhhhhhhhhhh",
"hhhhhhhhhhhhhhhhhhhhhhhhhhhhhhhhhhhhhhhhhhhhhhhht.........&hhhhhhhhh&......qhhhhhhhhhhhhhhhhhhhw>............$hhhhhhhhhhhhhhhhhh",
"hhhhhhhhhhhhhhhhhhhhhhhhhhhhhhhhhhhhhhhhhhhhhhhh7.........&hhhhhhhhh&......3hhhhhhhhhhhhhhhhr,$...............hhhhhhhhhhhhhhhhhh",
"hhhhhhhhhhhhhhhfeeshhhhhhhhhhhhhhhhhhhhhhhhhhhhh<.........&hhhhhhhhh&......>hhhhhhhhhhhhht:+.................*hhhhhhhhhhhhhhhhhh",
"hhhhhhhhhhhhhh<o...:hhhhhhhhhhhhhhhhhhhhhhhhhhhh:.........&hhhhhhhhh&......&hhhhhhhhhfw,&....................3hhhhhhhhhhhhhhhhhh",
"hhhhhhhhhhhhh4......;hhhhhhhhhhhhhhhhhhhhhhhhhhh#.........&hhhhhhhhh&......o1:*%+oX .........................yhhhhhhhhhhhhhhhhhh",
"hhhhhhhhhhhhh#.......5hhhhhhhhhhhhhhhhhhhhhhhhhhX.........%631,>::;*O...............................X.......#hhhhhhhhhhhhhhhhhhh",
"hhhhhhhhhhhhd........&hhhhhhhhhhhhhhhhsw2>;*&&&&................................ %;<<<<<<<<eee<7eeesr.......,hhhhhhhhhhhhhhhhhhh",
"hhhhhhhhhhhhi........&syw052<>:;-*#$o ......................................<6rshhhhhhhhhhhhhhhhhhhh4.......rhhhhhhhhhhhhhhhhhhh",
"hhhhhhhhhhhhhX....................................................$-%.......hhhhhhhhhhhhhhhhhhhhhhhh>......$hhhhhhhhhhhhhhhhhhhh",
"hhhhhhhhhhhhh#.............................................%=>3wphhh,.......hhhhhhhhhhhhhhhhhhhhhhhh&......>hhhhhhhhhhhhhhhhhhhh",
"hhhhhhhhhhhhh<.............................................shhhhhhhh<.......hhhhhhhhhhhhhhhhhhhhhhhhO......qhhhhhhhhhhhhhhhhhhhh",
"hhhhhhhhhhhhhr.......................X&;>140rya$...........ihhhhhhhh<.......hhhhhhhhhhhhaeeshhhhhhha......oghhhhhhhhhhhhhhhhhhhh",
"hhhhhhhhhhhhhho................+&:2wahhhhhhhhhh ...........rhhhhhhhh<.......hhhhhhhhhhp;....&5hhhhhq......:hhhhhhhhhhhhhhhhhhhhh",
"hhhhhhhhhhhhhh;.........o&>3qughhhhhhhhhhhhhhha............ehhhhhhhh<.......hhhhhhhhs<o.......<hhhh3......7hhhhhhhhhhhhhhhhhhhhh",
"hhhhhhhhhhhhhh1.......7fhhhhhhhhhhhhhhhhhhhhhhw............ehhhhhhhh<.......hhhhhhh3o..........0hhh>..... dhhhhhhhhhhhhhhhhhhhhh",
"hhhhhhhhhhhhhhw.......ehhhhhhhhhhhhhhhhhhhhhhh4............ehhhhhhhh<.......dhhhhy;............&hhh&.....*hhhhhhhhhhhhhhhhhhhhhh",
"hhhhhhhhhhhhhhg ......6hhhhhhhhhhhhhhhhhhhhhhh>............ehhhhhhhh:.......ihhh3O..............phh......4hhhhhhhhhhhhhhhhhhhhhh",
"hhhhhhhhhhhhhhh&......<hhhhhhhhhhhhhhhhhhhhhhh=............ehhhhhhhh&.......ehh>................ehe......yhhhhhhhhhhhhhhhhhhhhhh",
"hhhhhhhhhhhhhhh,......:hhhhhhhhhhhhhhhhhhhhhhhX...........Xhhhhhhhhh;.......7h;.................eh<......dhhhhhhhhhhhhhhhhhhhhhh",
"hhhhhhhhhhhhhhhq......&hhhhhhhhhhhhhhhhhhhhhh>............:hhhhhhhhh,.......2o.................ohh&.....+hhhhhhhhhhhhhhhhhhhhhhh",
"hhhhhhhhhhhhhhhd......ohhhhhhhhhhhhhhhhhhhhh,.............5hhhhhhhhh3.......X..................>hhX.....:hhhhhhhhhhhhhhhhhhhhhhh",
"hhhhhhhhhhhhhhhh+......dhhhhhhhhhhhhhhhhhhh9.............$dhhhhhhhhhw..........................whd......4hhhhhhhhhhhhhhhhhhhhhhh",
"hhhhhhhhhhhhhhhh*......thhhhhhhhhhhhhhhhhh9..............4hhhhhhhhhha........................+0hhe......ehhhhhhhhhhhhhhhhhhhhhhh",
"hhhhhhhhhhhhhhhh>......2hhhhhhhhhhhhhhhhh9..............*hhhhhhhhhhhhO..................... ,shhh6......dhhhhhhhhhhhhhhhhhhhhhhh",
"hhhhhhhhhhhhhhhh5......=hhhhhhhhhhhhhhhhh..............+yhhhhhhhhhhhsO....................:yhhhhh1.....$hhhhhhhhhhhhhhhhhhhhhhhh",
"hhhhhhhhhhhhhhhha......Xhhhhhhhhhhhhhhhh#.............Oahhhhhhhhhhhh>...................:thhhhhhh:.....>hhhhhhhhhhhhhhhhhhhhhhhh",
"hhhhhhhhhhhhhhhhhO......phhhhhhhhhhhhhh4..............ghhhhhhhhhhhhfX.................$6hhhhhhhhh*.....7hhhhhhhhhhhhhhhhhhhhhhhh",
"hhhhhhhhhhhhhhhhh$......whhhhhhhhhhhhhh%.............rhhhhhhhhhhhhhy.................:dhhhhhhhhhh$.....dhhhhhhhhhhhhhhhhhhhhhhhh",
"hhhhhhhhhhhhhhhhh=......6hhhhhhhhhhhhhh.............2hhhhhhhhhhhhhhe...............o3hhhhhhhhhhhh ....$hhhhhhhhhhhhhhhhhhhhhhhhh",
"hhhhhhhhhhhhhhhhh>......3hhhhhhhhhhhhhh............>hhhhhhhhhhhhhhhd..............:phhhhhhhhhhhha.....:hhhhhhhhhhhhhhhhhhhhhhhhh",
"hhhhhhhhhhhhhhhhh4......<hhhhhhhhhhhhhh%..........;hhhhhhhhhhhhhhhhh>...........=ehhhhhhhhhhhhhhr.....4hhhhhhhhhhhhhhhhhhhhhhhhh",
"hhhhhhhhhhhhhhhhhe......:hhhhhhhhhhhhhh2......... shhhhhhhhhhhhhhhhha$.......X>rhhhhhhhhhhhhhhhh6.....yhhhhhhhhhhhhhhhhhhhhhhhhh",
"hhhhhhhhhhhhhhhhha......&hhhhhhhhhhhhhhh&........rhhhhhhhhhhhhhhhhhhhi;....%3shhhhhhhhhhhhhhhhhh<.... hhhhhhhhhhhhhhhhhhhhhhhhhh",
"hhhhhhhhhhhhhhhhhh .....ohhhhhhhhhhhhhhhi;.....=shhhhhhhhhhhhhhhhhhhhhhp0<0hhhhhhhhhhhhhhhhhhhhh=....&hhhhhhhhhhhhhhhhhhhhhhhhhh",
"hhhhhhhhhhhhhhhhhh%......fhhhhhhhhhhhhhhhhe>&>9hhhhhhhhhhhhhhhhhhhhhhhhhhhhhhhhhhhhhhhhhhhhhhhhh+....1hhhhhhhhhhhhhhhhhhhhhhhhhh",
"hhhhhhhhhhhhhhhhhh*......ehhhhhhhhhhhhhhhhhhhhhhhhhhhhhhhhhhhhhhhhhhhhhhhhhhhhhhhhhhhhhhhhhhhhhd.....thhhhhhhhhhhhhhhhhhhhhhhhhh",
"hhhhhhhhhhhhhhhhhh:......2hhhhhhhhhhhhhhhhhhhhhhhhhhhhhhhhhhhhhhhhhhhhhhhhhhhhhhhhhhhhhhhhhhhhhe....Ohhhhhhhhhhhhhhhhhhhhhhhhhhh",
"hhhhhhhhhhhhhhhhhh,......;hhhhhhhhhhhhhhhhhhhhhhhhhhhhhhhhhhhhhhhhhhhhhhhhhhhhhhhhhhhhhhhhhhhhh1....=hhhhhhhhhhhhhhhhhhhhhhhhhhh",
"hhhhhhhhhhhhhhhhhh7......+hhhhhhhhhhhhhhhhhhhhhhhhhhhhhhhhhhhhhhhhhhhhhhhhhhhhhhhhhhhhhhhhhhhhh=....,hhhhhhhhhhhhhhhhhhhhhhhhhhh",
"hhhhhhhhhhhhhhhhhhi.......ahhhhhhhhhhhhhhhhhhhhhhhhhhhhhhhhhhhhhhhhhhhhhhhhhhhhhhhhhhhhhhhhhhhhO....7hhhhhhhhhhhhhhhhhhhhhhhhhhh",
"hhhhhhhhhhhhhhhhhhhO......0hhhhhhhhhhhhhhhhhhhhhhhhhhhhhhhhhhhhhhhhhhhhhhhhhhhhhhhhhhhhhhhhhhhy.....ihhhhhhhhhhhhhhhhhhhhhhhhhhh",
"hhhhhhhhhhhhhhhhhhh&......>hhhhhhhhhhhhhhhhhhhhhhhhhhhhhhhhhhhhhhhhhhhhhhhhhhhhhhhhhhhhhhhhhhh4.....hhhhhhhhhhhhhhhhhhhhhhhhhhhh",
"hhhhhhhhhhhhhhhhhhh,......%hhhhhhhhhhhhhhhhhhhhhhhhhhhhhhhhhhhhhhhhhhhhhhhhhhhhhhhhhhhhhhhhhhh:....%hhhhhhhhhhhhhhhhhhhhhhhhhhhh",
"hhhhhhhhhhhhhhhhhhh5.......dhhhhhhhhhhhhhhhhhhhhhhhhhhhhhhhhhhhhhhhhhhhhhhhhhhhhhhhhhhhhhhhhhh$....:hhhhhhhhhhhhhhhhhhhhhhhhhhhh",
"hhhhhhhhhhhhhhhhhhhr.......whhhhhhhhhhhhhhhhhhhhhhhhhhhhhhhhhhhhhhhhhhhhhhhhhhhhhhhhhhhhhhhhhp.....3hhhhhhhhhhhhhhhhhhhhhhhhhhhh",
"hhhhhhhhhhhhhhhhhhhs.......7hhhhhhhhhhhhhhhhhhhhhhhhhhhhhhhhhhhhhhhhhhhhhhhhhhhhhhhhhhhhhhhhh5.....yhhhhhhhhhhhhhhhhhhhhhhhhhhhh",
"hhhhhhhhhhhhhhhhhhhhO......3hhhhhhhhhhhhhhhhhhhhhhhhhhhhhhhhhhhhhhhhhhhhhhhhhhhhhhhhhhhhhhhhh;....ohhhhhhhhhhhhhhhhhhhhhhhhhhhhh",
"hhhhhhhhhhhhhhhhhhhh#......<hhhhhhhhhhhhhhhhhhhhhhhhhhhhhhhhhhhhhhhhhhhhhhhhhhhhhhhhhhhhhhhht.....=hhhhhhhhhhhhhhhhhhhhhhhhhhhhh",
"hhhhhhhhhhhhhhhhhhhh;......>hhhhhhhhhhhhhhhhhhhhhhhhhhhhhhhhhhhhhhhhhhhhhhhhhhhhhhhhhhhhdt6,@..... 7hhhhhhhhhhhhhhhhhhhhhhhhhhhh",
"hhhhhhhhhhhhhhhhhhhh<......;hhhhhhhhhhhhhhhhhhhhhhhhhhhhhhhhhhhhhhhhhhhhhhhhhhhhhhhhhu<$............7hhhhhhhhhhhhhhhhhhhhhhhhhhh",
"hhhhhhhhhhhhhhhhhhhh<......&hhhhhhhhhhhhhhhhhhhhhhhhhhhhhhhhhhhhhhhhhhhhhhhhhhhhhft<&...............+hhhhhhhhhhhhhhhhhhhhhhhhhhh",
"hhhhhhhhhhhhhhhhhhhh4......&hhhhhhhhhhhhhhhhhhhhhhhhhhhhhhhhhhhhhhhhhhhhhhfat02;$....................hhhhhhhhhhhhhhhhhhhhhhhhhhh",
"hhhhhhhhhhhhhhhhhhhht......<hhhhhhhhhhhhhhhhhhhhhhhhhhhhhhhhhhhhhhdw93<;#X...........................hhhhhhhhhhhhhhhhhhhhhhhhhhh",
"hhhhhhhhhhhhhhhhhhhhha*...<hhhhhhhhhhhhhhhhhhhhhhhhhhhhhgar03,>;*$..................................=hhhhhhhhhhhhhhhhhhhhhhhhhhh",
"hhhhhhhhhhhhhhhhhhhhhhhq<thhhhhhhhhhhhhhhhhhhhhhfayq3>&+...........................................Xqhhhhhhhhhhhhhhhhhhhhhhhhhhh",
"hhhhhhhhhhhhhhhhhhhhhhhhhhhhhhhhhhhhhhhhhhhfw<*O..................................................>ahhhhhhhhhhhhhhhhhhhhhhhhhhhh",
"hhhhhhhhhhhhhhhhhhhhhhhhhhhhhhhhhhhhhhfr4:%...................................................=7ehhhhhhhhhhhhhhhhhhhhhhhhhhhhhhh",
"hhhhhhhhhhhhhhhhhhhhhhhhhhhhhhhhae5,;$.................................X#;<7yfhdeeeeeetdhh<+.;hhhhhhhhhhhhhhhhhhhhhhhhhhhhhhhhhh",
"hhhhhhhhhhhhhhhhhhhhhhhhhhhhh0&...............................O%;,40tafhhhhhhhhhhhhhhhhhhhhhehhhhhhhhhhhhhhhhhhhhhhhhhhhhhhhhhhh",
"hhhhhhhhhhhhhhhhhhhhhhhhhhhh0............................O&,0ahhhhhhhhhhhhhhhhhhhhhhhhhhhhhhhhhhhhhhhhhhhhhhhhhhhhhhhhhhhhhhhhhh",
"hhhhhhhhhhhhhhhhhhhhhhhhhhhh#...................... &>3wahhhhhhhhhhhhhhhhhhhhhhhhhhhhhhhhhhhhhhhhhhhhhhhhhhhhhhhhhhhhhhhhhhhhhhh",
"hhhhhhhhhhhhhhhhhhhhhhhhhhhe..................+=>5yhhhhhhhhhhhhhhhhhhhhhhhhhhhhhhhhhhhhhhhhhhhhhhhhhhhhhhhhhhhhhhhhhhhhhhhhhhhhh",
"hhhhhhhhhhhhhhhhhhhhhhhhhhhe..............+:4yhhhhhhhhhhhhhhhhhhhhhhhhhhhhhhhhhhhhhhhhhhhhhhhhhhhhhhhhhhhhhhhhhhhhhhhhhhhhhhhhhh",
"hhhhhhhhhhhhhhhhhhhhhhhhhhha...........o:qhhhhhhhhhhhhhhhhhhhhhhhhhhhhhhhhhhhhhhhhhhhhhhhhhhhhhhhhhhhhhhhhhhhhhhhhhhhhhhhhhhhhhh",
"hhhhhhhhhhhhhhhhhhhhhhhhhhhh;.......+:7dhhhhhhhhhhhhhhhhhhhhhhhhhhhhhhhhhhhhhhhhhhhhhhhhhhhhhhhhhhhhhhhhhhhhhhhhhhhhhhhhhhhhhhhh",
"hhhhhhhhhhhhhhhhhhhhhhhhhhhhh<o..$>qghhhhhhhhhhhhhhhhhhhhhhhhhhhhhhhhhhhhhhhhhhhhhhhhhhhhhhhhhhhhhhhhhhhhhhhhhhhhhhhhhhhhhhhhhhh",
"hhhhhhhhhhhhhhhhhhhhhhhhhhhhhhdeyhhhhhhhhhhhhhhhhhhhhhhhhhhhhhhhhhhhhhhhhhhhhhhhhhhhhhhhhhhhhhhhhhhhhhhhhhhhhhhhhhhhhhhhhhhhhhhh",
"hhhhhhhhhhhhhhhhhhhhhhhhhhhhhhhhhhhhhhhhhhhhhhhhhhhhhhhhhhhhhhhhhhhhhhhhhhhhhhhhhhhhhhhhhhhhhhhhhhhhhhhhhhhhhhhhhhhhhhhhhhhhhhhh",
"hhhhhhhhhhhhhhhhhhhhhhhhhhhhhhhhhhhhhhhhhhhhhhhhhhhhhhhhhhhhhhhhhhhhhhhhhhhhhhhhhhhhhhhhhhhhhhhhhhhhhhhhhhhhhhhhhhhhhhhhhhhhhhhh",
"hhhhhhhhhhhhhhhhhhhhhhhhhhhhhhhhhhhhhhhhhhhhhhhhhhhhhhhhhhhhhhhhhhhhhhhhhhhhhhhhhhhhhhhhhhhhhhhhhhhhhhhhhhhhhhhhhhhhhhhhhhhhhhhh",
"hhhhhhhhhhhhhhhhhhhhhhhhhhhhhhhhhhhhhhhhhhhhhhhhhhhhhhhhhhhhhhhhhhhhhhhhhhhhhhhhhhhhhhhhhhhhhhhhhhhhhhhhhhhhhhhhhhhhhhhhhhhhhhhh",
"hhhhhhhhhhhhhhhhhhhhhhhhhhhhhhhhhhhhhhhhhhhhhhhhhhhhhhhhhhhhhhhhhhhhhhhhhhhhhhhhhhhhhhhhhhhhhhhhhhhhhhhhhhhhhhhhhhhhhhhhhhhhhhhh",
"hhhhhhhhhhhhhhhhhhhhhhhhhhhhhhhhhhhhhhhhhhhhhhhhhhhhhhhhhhhhhhhhhhhhhhhhhhhhhhhhhhhhhhhhhhhhhhhhhhhhhhhhhhhhhhhhhhhhhhhhhhhhhhhh",
"hhhhhhhhhhhhhhhhhhhhhhhhhhhhhhhhhhhhhhhhhhhhhhhhhhhhhhhhhhhhhhhhhhhhhhhhhhhhhhhhhhhhhhhhhhhhhhhhhhhhhhhhhhhhhhhhhhhhhhhhhhhhhhhh",
"hhhhhhhhhhhhhhhhhhhhhhhhhhhhhhhhhhhhhhhhhhhhhhhhhhhhhhhhhhhhhhhhhhhhhhhhhhhhhhhhhhhhhhhhhhhhhhhhhhhhhhhhhhhhhhhhhhhhhhhhhhhhhhhh",
"hhhhhhhhhhhhhhhhhhhhhhhhhhhhhhhhhhhhhhhhhhhhhhhhhhhhhhhhhhhhhhhhhhhhhhhhhhhhhhhhhhhhhhhhhhhhhhhhhhhhhhhhhhhhhhhhhhhhhhhhhhhhhhhh"
};
