/* XPM */
static char *result[] = {
/* columns rows colors chars-per-pixel */
"32 32 188 2 ",
"   c #46592B",
".  c #4B5E39",
"X  c #7B422E",
"o  c #557033",
"O  c #577735",
"+  c #577539",
"@  c #5A793B",
"#  c #473F46",
"$  c #502965",
"%  c #3C5756",
"&  c #356673",
"*  c #4F4D4F",
"=  c #5B4F4A",
"-  c #5E4D4C",
";  c #53554E",
":  c #52584F",
">  c #54435B",
",  c #505052",
"<  c #555156",
"1  c #5E5E54",
"2  c #55585A",
"3  c #615555",
"4  c #765A5B",
"5  c #4E6949",
"6  c #59654E",
"7  c #58644F",
"8  c #5E7843",
"9  c #56764F",
"0  c #5F7849",
"q  c #586351",
"w  c #586352",
"e  c #596253",
"r  c #5A6852",
"t  c #5E6D54",
"y  c #5F6E55",
"u  c #5F655C",
"i  c #607C4B",
"p  c #606D58",
"a  c #627755",
"s  c #697E58",
"d  c #5B4B65",
"f  c #5C4F68",
"g  c #5D4A6E",
"h  c #65586F",
"j  c #6A5B76",
"k  c #6C5C76",
"l  c #685C79",
"z  c #486263",
"x  c #4E6262",
"c  c #54686A",
"v  c #486D77",
"b  c #626668",
"n  c #646569",
"m  c #68656B",
"M  c #64696F",
"N  c #69686A",
"B  c #7B6363",
"V  c #647161",
"C  c #676D70",
"Z  c #6E7171",
"A  c #737278",
"S  c #747478",
"D  c #78767C",
"F  c #767978",
"G  c #A6324F",
"H  c #895750",
"J  c #905856",
"K  c #9D5D59",
"L  c #BF564A",
"P  c #A65153",
"I  c #B55B57",
"U  c #867354",
"Y  c #B26054",
"T  c #BA6252",
"R  c #C34F46",
"E  c #C5544E",
"W  c #DA534E",
"Q  c #D15753",
"!  c #D35B53",
"~  c #D55D55",
"^  c #D85954",
"/  c #E15B4E",
"(  c #E25D4F",
")  c #DD6155",
"_  c #DF6054",
"`  c #C57C52",
"'  c #E16751",
"]  c #E16553",
"[  c #E46652",
"{  c #E66951",
"}  c #E56952",
"|  c #E56A52",
" . c #E66A52",
".. c #E76A52",
"X. c #E56C52",
"o. c #E66E52",
"O. c #ED6952",
"+. c #EF6853",
"@. c #EF6D53",
"#. c #ED6854",
"$. c #ED7654",
"%. c #E67D54",
"&. c #5F8F24",
"*. c #5D813D",
"=. c #628B3B",
"-. c #68983C",
";. c #5D9157",
":. c #628241",
">. c #678A44",
",. c #68894C",
"<. c #68894D",
"1. c #679044",
"2. c #689047",
"3. c #709F49",
"4. c #668152",
"5. c #6B8E51",
"6. c #6C8E52",
"7. c #719359",
"8. c #74945C",
"9. c #70A247",
"0. c #71A247",
"q. c #72A645",
"w. c #75A747",
"e. c #75AB44",
"r. c #74A846",
"t. c #71A248",
"y. c #73A04D",
"u. c #75A74C",
"i. c #75A64D",
"p. c #7FAC5F",
"a. c #7CB152",
"s. c #6D8262",
"d. c #7DAD69",
"f. c #7DC262",
"g. c #928D42",
"h. c #82BA52",
"j. c #84B85D",
"k. c #81AD65",
"l. c #84AB6A",
"z. c #84B662",
"x. c #87BB62",
"c. c #8DBF67",
"v. c #89B56B",
"b. c #91BD78",
"n. c #A6A965",
"m. c #EE8E57",
"M. c #F08E56",
"N. c #EB9557",
"B. c #EEA35A",
"V. c #EEA55A",
"C. c #EEAD5C",
"Z. c #8FC269",
"A. c #95C86F",
"S. c #9ACA6B",
"D. c #93C377",
"F. c #97CF70",
"G. c #96CD73",
"H. c #9AD079",
"J. c #9DD678",
"K. c #A1D67E",
"L. c #A1D97C",
"P. c #A3DD7D",
"I. c #716982",
"U. c #756C80",
"Y. c #776E8A",
"T. c #787184",
"R. c #7B7D84",
"E. c #7A728A",
"W. c #7C768D",
"Q. c #6E8288",
"!. c #7E899A",
"~. c #8C89A0",
"^. c #8D96A3",
"/. c #9994AD",
"(. c #A3A9BD",
"). c #A3DD80",
"_. c #A7DD83",
"`. c #A8E383",
"'. c #AAE386",
"]. c #AAE587",
"[. c #AEE98D",
"{. c #AAEE8E",
"}. c #B1EF8C",
"|. c #B5EE93",
" X c #B3F190",
".X c #BCBAD5",
"XX c #BDBDD6",
"oX c None",
/* pixels */
"oXoXoXoXoXoXoXoXoXoXoXoXoXoXoXoXoXoXoXoXoXoXoXoXoXoXoXoXoXoXoXoX",
"oXoXoXoXoXoXoXoXoXoXoXoXoXoXoXoXoXoXoXoXoXoXoXoXoXoXoXoXoXoXoXoX",
"oXoXoXoXoXoXoXoXoXoXoXoXoXoXoXoXoXoXoXoXoXoXoXoXoXoXoXoXoXoXoXoX",
"oXoXoXoXoXoXoXoXoXoXoXoXoXoXoXoXoXoXoXoXoXoXoXoXoXoXoXoXoXoXoXoX",
"oXoXoXoXoXoXoXoXoXoXoXoXoXoXoXoXoXoXoXoXoXoXoXoXoXoXoXoXoXoXoXoX",
"oXoXoXoXoXoXoXoXoXoXoXoXoXoXoXoXoXoXoXoXoXoXoXoXoXoXoXoXoXoXoXoX",
"oXoXoXoXoXoXoXoXoXoXoXoXoXoXoXoXoXoXoXoXoXoXoXoXoXoXoXoXoXoXoXoX",
"oXoXoXoXoXoXoXoXoXoXoXoXoXoXoXoXoXoXoXoXoXoXoXoXoXoXoXoXoXoXoXoX",
"oXoXoXoXoXoXoXoXoXoXoXoXoXoX# ; > oXoXoXoXoXoXoXoXoXoXoXoXoXoXoX",
"oXoXoXoXoXoXoXoXoXoXoXoXoXs K._.v.6 oXoXoXoXoXoXoXoXoXoXoXoXoXoX",
"oXoXoXoXoXoXoXoXoXoXoXoXa '.L.G. Xc.< oXoXoXoXoXoXoXoXoXoXoXoXoX",
"oXoXoXoXoXoXoXoXoXoXoXoXD.F.O   z.`.4.oXoXoXoXoXoXoXoXoXoXoXoXoX",
"oXoXoXoXoXoXoXoXoXoXoX: A.y., U.t ].7.g oXoXoXoXoXoXoXoXoXoXoXoX",
"oXoXoXoXoXoXoXoXoXoXoX1 S.>.~.oXV P.,.Y.F l.s.oXoXoXoXoXoXoXoXoX",
"oXoXoXoXoXoXoXoXoXoXoX% ;.5 k I.p.J.o /.b }.b.$ oXoXoXoXoXoXoXoX",
"oXoXoXoXoXoXoXoXoXz 4 P G U d.Z.[.w.R..X7 j.8.l oXoXoXoXoXoXoXoX",
"oXoXoXoXoXoXoXoXc J ' M.$.` {.|.x.. W.S =.q.0 T.oXoXoXoXoXoXoXoX",
"oXoXoXoXoXoXoXoXB / m.C.V.( n.f.:.w *.-.u.t.u oXoXoXoXoXoXoXoXoX",
"oXoXoXoXoXoXoXv Y +.%.B.N...W g.9 8 e.3.9.2.m oXoXoXoXoXoXoXoXoX",
"oXoXoXoXoXoXoX& T @.[ o.} ..] Q = M n @ r.i j oXoXoXoXoXoXoXoXoX",
"oXoXoXoXoXoXoXQ.K O.X.}  .| ) R A XXE.+ a.k.* oXoXoXoXoXoXoXoXoX",
"oXoXoXoXoXoXoXoXC L #...{ _ ^ X (.D &.i.0.).H.r oXoXoXoXoXoXoXoX",
"oXoXoXoXoXoXoXoXoX2 I ! ~ E H !.oXZ 6.y q 1.h.5.h oXoXoXoXoXoXoX",
"oXoXoXoXoXoXoXoXoXoXx 3 - N ^.oXoXoXd oXoXe <.p oXoXoXoXoXoXoXoX",
"oXoXoXoXoXoXoXoXoXoXoXoXoXoXoXoXoXoXoXoXoXoXf oXoXoXoXoXoXoXoXoX",
"oXoXoXoXoXoXoXoXoXoXoXoXoXoXoXoXoXoXoXoXoXoXoXoXoXoXoXoXoXoXoXoX",
"oXoXoXoXoXoXoXoXoXoXoXoXoXoXoXoXoXoXoXoXoXoXoXoXoXoXoXoXoXoXoXoX",
"oXoXoXoXoXoXoXoXoXoXoXoXoXoXoXoXoXoXoXoXoXoXoXoXoXoXoXoXoXoXoXoX",
"oXoXoXoXoXoXoXoXoXoXoXoXoXoXoXoXoXoXoXoXoXoXoXoXoXoXoXoXoXoXoXoX",
"oXoXoXoXoXoXoXoXoXoXoXoXoXoXoXoXoXoXoXoXoXoXoXoXoXoXoXoXoXoXoXoX",
"oXoXoXoXoXoXoXoXoXoXoXoXoXoXoXoXoXoXoXoXoXoXoXoXoXoXoXoXoXoXoXoX",
"oXoXoXoXoXoXoXoXoXoXoXoXoXoXoXoXoXoXoXoXoXoXoXoXoXoXoXoXoXoXoXoX"
};
