/* XPM */
static char *result[] = {
/* columns rows colors chars-per-pixel */
"32 32 7 1 ",
"  c #474450",
". c #5B5057",
"X c #606060",
"o c #766969",
"O c #937B6C",
"+ c #9D937E",
"@ c None",
/* pixels */
"@@@@@@@@@@@@@@@@@@@@@@@@@@@@@@@@",
"@@@@@@@@@@@@@@@@@@@@@@@@@@@@@@@@",
"@@@@@@@@@@@@@@@@@@@@@@@@@@@@@@@@",
"@@@@@@@@@@@@@@@@@@@@@@@@@@@@@@@@",
"@@@@@@@@@@@@@@@@@@@@@@@@@@@@@@@@",
"@@@@@@@@@@@@@@O..o@@@@@@@@@@@@@@",
"@@@@@@@@@@@@o.    .@@@@@@@@@@@@@",
"@@@@@@@@@@@@        @@@@@@@@@@@@",
"@@@@@@@@@@@.        .@@@@@@@@@@@",
"@@@@@@@@@@.          .@@@@@@@@@@",
"@@@@@@@@@@.          .@@@@@@@@@@",
"@@@@@@@@@@            @@@@@@@@@@",
"@@@@@@@@@.            .@@@@@@@@@",
"@@@@@@@@@              @@@@@@@@@",
"@@@@@@@@@              @@@@@@@@@",
"@@@@@@@@@ .          . @@@@@@@@@",
"@@@@@@@@. ............ @@@@@@@@@",
"@@@@@@@@X ............ @@@@@@@@@",
"@@@@@@@@ .............. @@@@@@@@",
"@@@@@@@@ X............X @@@@@@@@",
"@@@@@@@@ XXX........XXX @@@@@@@@",
"@@@@@@@@ XXXXXXXXXXXXXX @@@@@@@@",
"@@@@@@@@ ooXXXXXXXXXXoo @@@@@@@@",
"@@@@@@@@ oooooooooooooo @@@@@@@@",
"@@@@@@@@ o++++++++++++o @@@@@@@@",
"@@@@@@@@o++++++++++++++o@@@@@@@@",
"@@@@@@@@@@@@@@@@@@@@@@@@@@@@@@@@",
"@@@@@@@@@@@@@@@@@@@@@@@@@@@@@@@@",
"@@@@@@@@@@@@@@@@@@@@@@@@@@@@@@@@",
"@@@@@@@@@@@@@@@@@@@@@@@@@@@@@@@@",
"@@@@@@@@@@@@@@@@@@@@@@@@@@@@@@@@",
"@@@@@@@@@@@@@@@@@@@@@@@@@@@@@@@@"
};
