/* XPM */
static char *result[] = {
/* columns rows colors chars-per-pixel */
"32 32 4 1 ",
"  c #95C47B",
". c #9FC988",
"X c #A4D38B",
"o c #B9DDA4",
/* pixels */
"XXXXXXXXXXXXXXXX....XXXXXXXXXXXX",
"XXXXXXXXXXXXXXXX....XXXXXXXXXXXX",
"XXXXXXXXXXXXXXXXXXXXXXXXXXXXXXXX",
"XXXXXXXXXXXXXXXXXXXXXXXXXXXXXXXX",
"XXXXXXXXXXXXXXXXXXXXXXXXXXXXoooo",
"XXXXXXXXXXXXXXXXXXXXXXXXXXXXoooo",
"XXXXXXXXXXXXXXXXXXXXXXXXXXXXoooo",
"XXXXXXXXXXXXXXXXXXXXXXXXXXXXoooo",
"XXXXXXXXXXXXXXXXXX....XXXXXXXXXX",
"XXXXXXXXXXXXXXXXXX....XXXXXXXXXX",
"XXXXXXXXXXooooXXXXXX....XXXXXXXX",
"XXXXXXXXXXooooXXXXXX....XXXXXXXX",
"XXXXXXXXXXXXXXXXXXXXXXXXXX    XX",
"XXXXXXXXXXXXXXXXXXXXXXXXXX    XX",
"....XXXXXXXXXXXXXXXXXXXXXX    XX",
"....XXXXXXXXXXXXXXXXXXXXXX    XX",
"..  ..XXXXXXXXXXooXXXXXXXXXXXXXX",
"..  ..XXXXXXXXXXooXXXXXXXXXXXXXX",
"XX....XXXXXXXXXXXXXXXXXXXXXXXXXX",
"XX....XXXXXXXXXXXXXXXXXXXXXXXXXX",
"XXXXXXXXXX....XXXXXXXXXXooooXXXX",
"XXXXXXXXXX....XXXXXXXXXXooooXXXX",
"XXXXXXXXXXXXXXXXXXXXXXXXooooXXXX",
"XXXXXXXXXXXXXXXXXXXXXXXXooooXXXX",
"XX..XXXXXXXXXX....XXXXXXXXXXXXXX",
"XX..XXXXXXXXXX....XXXXXXXXXXXXXX",
"XXXXXXXXXXXXXX..  ..XXXXXXXXXXXX",
"XXXXXXXXXXXXXX..  ..XXXXXXXXXXXX",
"XXXXXXXXXXXXXXXX....XXXXXXXXXXXX",
"XXXXXXXXXXXXXXXX....XXXXXXXXXXXX",
"XXXXXXXXXXXXXXXXXXXXXXXXXXXXXXXX",
"XXXXXXXXXXXXXXXXXXXXXXXXXXXXXXXX"
};
