/* XPM */
static char *result[] = {
/* columns rows colors chars-per-pixel */
"32 32 245 2 ",
"   c #081812",
".  c #111C15",
"X  c #1C241D",
"o  c #27221C",
"O  c #22271C",
"+  c #20261E",
"@  c #27241E",
"#  c #303129",
"$  c #36352C",
"%  c #3C372E",
"&  c #323C2E",
"*  c #3B382F",
"=  c #3B392F",
"-  c #3A3B30",
";  c #3B3B30",
":  c #3F3A31",
">  c #403D32",
",  c #403C33",
"<  c #413F33",
"1  c #384532",
"2  c #384533",
"3  c #384733",
"4  c #394733",
"5  c #3B4633",
"6  c #3A4733",
"7  c #3D4734",
"8  c #3A4834",
"9  c #3A4934",
"0  c #3D4A34",
"q  c #3C4B35",
"w  c #3C4C36",
"e  c #3D4C36",
"r  c #375036",
"t  c #385036",
"y  c #3B5738",
"u  c #3D5739",
"i  c #3F573B",
"p  c #474337",
"a  c #484338",
"s  c #48463A",
"d  c #4C4C3C",
"f  c #564B3E",
"g  c #514E3E",
"h  c #435B3D",
"j  c #455A3D",
"k  c #445A3E",
"l  c #465B3E",
"z  c #465B3F",
"x  c #465C3F",
"c  c #475C3F",
"v  c #465D3F",
"b  c #485D3F",
"n  c #4E603E",
"m  c #4E613E",
"M  c #564E41",
"N  c #584F42",
"B  c #475E40",
"V  c #485E40",
"C  c #495E40",
"Z  c #495F40",
"A  c #495E41",
"S  c #595042",
"D  c #595143",
"F  c #5F5547",
"G  c #635749",
"H  c #63584A",
"J  c #655849",
"K  c #645A4B",
"L  c #675B4B",
"P  c #685D4D",
"I  c #685E4F",
"U  c #4A6041",
"Y  c #4B6141",
"T  c #4B6241",
"R  c #4B6142",
"E  c #4B6242",
"W  c #4C6242",
"Q  c #4D6242",
"!  c #4D6342",
"~  c #4E6542",
"^  c #4E6443",
"/  c #4F6543",
"(  c #4F6643",
")  c #4F6644",
"_  c #4F6A42",
"`  c #506744",
"'  c #516744",
"]  c #506745",
"[  c #516844",
"{  c #516845",
"}  c #526844",
"|  c #526845",
" . c #526945",
".. c #536A45",
"X. c #516846",
"o. c #536A46",
"O. c #536B46",
"+. c #546B46",
"@. c #546B47",
"#. c #536C44",
"$. c #556C45",
"%. c #566C45",
"&. c #556C46",
"*. c #556D46",
"=. c #556C47",
"-. c #566D47",
";. c #566E47",
":. c #576E47",
">. c #586F45",
",. c #5A7045",
"<. c #5A7247",
"1. c #587048",
"2. c #597048",
"3. c #597148",
"4. c #5A7148",
"5. c #5A7248",
"6. c #5B7248",
"7. c #5B7348",
"8. c #5B7249",
"9. c #5B7349",
"0. c #5C7449",
"q. c #5D7549",
"w. c #5C744A",
"e. c #5E764A",
"r. c #5F774A",
"t. c #5E774C",
"y. c #60784A",
"u. c #60784B",
"i. c #60794B",
"p. c #61794B",
"a. c #617A4B",
"s. c #627A4B",
"d. c #637B4B",
"f. c #637B4C",
"g. c #627B4D",
"h. c #627B4E",
"j. c #647C4D",
"k. c #657E4C",
"l. c #657E4D",
"z. c #667F4C",
"x. c #667E4D",
"c. c #667F4D",
"v. c #647E4E",
"b. c #667F4E",
"n. c #6B6251",
"m. c #706554",
"M. c #756655",
"N. c #6D8746",
"B. c #6E8847",
"V. c #66804C",
"C. c #67804E",
"Z. c #69824D",
"A. c #68814E",
"S. c #68824E",
"D. c #69824E",
"F. c #68824F",
"G. c #69824F",
"H. c #69834F",
"J. c #6A834F",
"K. c #6A844D",
"L. c #6B854F",
"P. c #6D874F",
"I. c #6E884F",
"U. c #6E894F",
"Y. c #6F8A4F",
"T. c #708A4F",
"R. c #7A914E",
"E. c #6B8551",
"W. c #6E8A51",
"Q. c #6E8852",
"!. c #708B50",
"~. c #708C51",
"^. c #738C50",
"/. c #738D50",
"(. c #738D51",
"). c #728E51",
"_. c #738E51",
"`. c #758F50",
"'. c #748F51",
"]. c #759051",
"[. c #769251",
"{. c #769252",
"}. c #779352",
"|. c #779253",
" X c #789452",
".X c #799552",
"XX c #799553",
"oX c #7A9653",
"OX c #7B9753",
"+X c #7C9652",
"@X c #7C9854",
"#X c #7C9954",
"$X c #7D9A54",
"%X c #7D9A55",
"&X c #7E9A54",
"*X c #7E9B54",
"=X c #7F9C54",
"-X c #7F9D54",
";X c #7D9A58",
":X c #819951",
">X c #809B52",
",X c #839E52",
"<X c #809D54",
"1X c #809D55",
"2X c #809E55",
"3X c #819E55",
"4X c #83A156",
"5X c #86A054",
"6X c #87A054",
"7X c #84A256",
"8X c #8CA553",
"9X c #8DA753",
"0X c #88A256",
"qX c #8AA656",
"wX c #82A05A",
"eX c #92AA54",
"rX c #96AC56",
"tX c #98AD57",
"yX c #99B556",
"uX c #9FB759",
"iX c #A1B954",
"pX c #A2BB54",
"aX c #A4BC55",
"sX c #A5BE54",
"dX c #A6BE55",
"fX c #A6BD56",
"gX c #A8BB58",
"hX c #AEBE5B",
"jX c #B1BF5D",
"kX c #A8C159",
"lX c #A9C15A",
"zX c #ADC15B",
"xX c #B5C45F",
"cX c #BBC661",
"vX c #BCC762",
"bX c #C2C765",
"nX c #C0C864",
"mX c #C3C864",
"MX c #C6CA66",
"NX c #CECC6B",
"BX c #D0CC6C",
"VX c #D0CC6D",
"CX c #D3CE6D",
"ZX c #D4CE6E",
"AX c None",
/* pixels */
"AXAXAXAXAXAXAXAXAXAXAXAXAXAXAXAXAXAXAXAXAXAXAXAXAXAXAXAXAXAXAXAX",
"AXAXAXAXAXAXAXAXAXAXAXAXAXAXAXAXAXAXAXAXAXAXAXAXAXAXAXAXAXAXAXAX",
"AXAXAXAXAXAXAXAXAXAXAXAXAXAXAXAXAXAXAXAXAXAXAXAXAXAXAXAXAXAXAXAX",
"AXAXAXAXAXAXAXAXAXAXAXAXAXAXAXAXAXAXAXAXAXAXAXAXAXAXAXAXAXAXAXAX",
"AXAXAXAXAXAXAXAXAXAXAXAXAXAX_ N.B.#.AXAXAXAXAXAXAXAXAXAXAXAXAXAX",
"AXAXAXAXAXAXAXAXAXAXAXAX,.yXxXnXvXzXuX>.AXAXAXAXAXAXAXAXAXAXAXAX",
"AXAXAXAXAXAXAXAXAXAXAXR.lXcXNXCXZXbXdXkXR.AXAXAXAXAXAXAXAXAXAXAX",
"AXAXAXAXAXAXAXAXAXAX*.0X6XgXMXVXBXmXiX5XqX&.AXAXAXAXAXAXAXAXAXAX",
"AXAXAXAXAXAXAXAXAX} %XW.8XaXtXjXhXrXfX9Xv.|.%.AXAXAXAXAXAXAXAXAX",
"AXAXAXAXAXAXAXAXAXwX4X{.^.(.,XsXpX>X_./.{.7X;XAXAXAXAXAXAXAXAXAX",
"AXAXAXAXAXAXAXAX<.oXU.XX=XF.:XeX+X`.'.*X$XY.@X<.AXAXAXAXAXAXAXAX",
"AXAXAXAXAXAXAX~ h.q. X=XXX=X).~.).#X3XoX*X.Xz.t.Q AXAXAXAXAXAXAX",
"AXAXAXAXAXAXAXY b.0.1X{.I.&X*X3X3X XoX_.].2Xq.g.U AXAXAXAXAXAXAX",
"AXAXAXAXAXAXAXn Q.e.5.p.<X{.].!.1X'.OX1XV.4.3.E.m AXAXAXAXAXAXAX",
"AXAXAXAXAXAXAXw.j.x.6.2.}.P.-XT.d.6.Z. X4.8.k.7.1.AXAXAXAXAXAXAX",
"AXAXAXAXAXAX0 ] [ J.L.u...;.[.K.e.f.-.:.s.L.H.Y X.0 AXAXAXAXAXAX",
"AXAXAXAXAXAXw { b r.y.l.D.a.0.3.D.J.G.G.A.4.6.Z ) w AXAXAXAXAXAX",
"AXAXAXAXAXAXq ) ( k / S.6.C.J.A.A.C.i.f.c.T x ( R 9 AXAXAXAXAXAX",
"AXAXAXAXAXAX& A +.| Y Y Z C.H.9.c.J.7.z Y Z ..+.R & AXAXAXAXAXAX",
"AXAXAXAXAXAXAXe U { +. .C $.y.! x.C.! T ` O.W V e AXAXAXAXAXAXAX",
"AXAXAXAXAXAXAXAX2 U | '  .U E U c Z Z o.W ^ U 1 AXAXAXAXAXAXAXAX",
"AXAXAXAXAXAXAXAXO 4 r h =.o.` +.{ !  .@.i t 6 O AXAXAXAXAXAXAXAX",
"AXAXAXAXAXAXAXAXAX: J d u j v o.O.B l y g F * AXAXAXAXAXAXAXAXAX",
"AXAXAXAXAXAXAXAXAX< P K N - 7 3 8 5 ; M G L > AXAXAXAXAXAXAXAXAX",
"AXAXAXAXAXAXAXAXAXAXX M.n.s % H I , p m.D   AXAXAXAXAXAXAXAXAXAX",
"AXAXAXAXAXAXAXAXAXAXo a $ AX. f S + AX# = @ AXAXAXAXAXAXAXAXAXAX",
"AXAXAXAXAXAXAXAXAXAXAXAXAXAXAXAXAXAXAXAXAXAXAXAXAXAXAXAXAXAXAXAX",
"AXAXAXAXAXAXAXAXAXAXAXAXAXAXAXAXAXAXAXAXAXAXAXAXAXAXAXAXAXAXAXAX",
"AXAXAXAXAXAXAXAXAXAXAXAXAXAXAXAXAXAXAXAXAXAXAXAXAXAXAXAXAXAXAXAX",
"AXAXAXAXAXAXAXAXAXAXAXAXAXAXAXAXAXAXAXAXAXAXAXAXAXAXAXAXAXAXAXAX",
"AXAXAXAXAXAXAXAXAXAXAXAXAXAXAXAXAXAXAXAXAXAXAXAXAXAXAXAXAXAXAXAX",
"AXAXAXAXAXAXAXAXAXAXAXAXAXAXAXAXAXAXAXAXAXAXAXAXAXAXAXAXAXAXAXAX"
};
