/* XPM */
static char *result[] = {
/* columns rows colors chars-per-pixel */
"32 32 18 1 ",
"  c black",
". c #384050",
"X c #784040",
"o c #C03838",
"O c #F06848",
"+ c #C89838",
"@ c #D8A078",
"# c #F8D858",
"$ c #386088",
"% c #C06898",
"& c #C0B898",
"* c #F8D0B8",
"= c #A8A0C8",
"- c #E890C0",
"; c #C8C8D8",
": c #E8E8F8",
"> c white",
", c None",
/* pixels */
",,,,,,,,,,,,,,,,,,,,,,,,,,,,,,,,",
",,,,,,,,,,,,,,,,,,,,,,,,,,,,,,,,",
",,,,,,,,,,,,,,,,,,,,,,,,,,,,,,,,",
",,,,,,,,,,,,,==,,,,,,,,,,,,,,,,,",
",,,,,,,,,,,,,:::=,,,,,,,,,,,,,,,",
",,,,,,,,,,,$$:::::,,,,,,,,,,,,,,",
",,,,,,,,,,=:;:::::::=,,,,,,,,,,,",
",,,,,,,,, ::::::::::: ,,,,,,,,,,",
",,,,,,,, ;:::::::::::; ,,,,,,,,,",
",,,,,,,,.;:::::::::::;.,,,,,,,,,",
",,,,,,, .;;:::::::::;;. ,,,,,,,,",
",,,,,,, .=;;;:---:;;;=. ,,,,,,,,",
",,,,,,, .=;;;%;;;%;;;=. ,,,,,,,,",
",,,,,,, @ ;:;=====;:;.@ ,,,,,,,,",
",,,,,,, @.==;;:;:;;==.@ ,,,,,,,,",
",,,,,,, ..#.=$@@@$=.#.. >,,,,,,,",
",,,,,,,  $.@: *** :@ $$. ,,,,,,,",
",,,,,,,, $$.*******@ $$$ ,,,,,,,",
",,,,,,,,. $ @**@**@X  $ >,,,,,,,",
",,,,,,,,   # X@@@X @@  @ ,,,,,,,",
",,,,,,,, ** +XoooOOX =@@ ,,,,,,,",
",,,,,,,, @@++XOo=oOO&   ,,,,,,,,",
",,,,,,,,,  #+..O..OO ,,,,,,,,,,,",
",,,,,,,,, ++-%Xo.%oX ,,,,,,,,,,,",
",,,,,,,,,,   -----X  ,,,,,,,,,,,",
",,,,,,,,,,,,XX    @@ ,,,,,,,,,,,",
",,,,,,,,,,,,,,,, %% ,,,,,,,,,,,,",
",,,,,,,,,,,,,,,, %% ,,,,,,,,,,,,",
",,,,,,,,,,,,,,,,,  ,,,,,,,,,,,,,",
",,,,,,,,,,,,,,,,,,,,,,,,,,,,,,,,",
",,,,,,,,,,,,,,,,,,,,,,,,,,,,,,,,",
",,,,,,,,,,,,,,,,,,,,,,,,,,,,,,,,"
};
