/* XPM */
static char *result[] = {
/* columns rows colors chars-per-pixel */
"32 32 14 1 ",
"  c black",
". c #303038",
"X c #784040",
"o c #585868",
"O c #486878",
"+ c #987068",
"@ c #F0B818",
"# c #D89870",
"$ c #48A0A8",
"% c #68D0C8",
"& c #F8D0B8",
"* c #A8A0C8",
"= c #E8E8F8",
"- c None",
/* pixels */
"--------------------------------",
"--------------------------------",
"--------------------------------",
"--------------------------------",
"--------------------------------",
"--------------------------------",
"-------------OOOOO--------------",
"-----------OO%$$%$OO------------",
"----------O$%$$O$$$$O+----------",
"--------- $%%$OOO$%$$ ----------",
"--------+ $%%$$O$$%$$ +---------",
"-------- $$$%%$$$%$$$$ ---------",
"-------- $$$$$%%$$$$$$ ---------",
"-------- $O$$$$$$$$$O$ ---------",
"------- OO$$$$$$$$$$$OO --------",
"------- OOO$O$$$$$O$OOO --------",
"------- OOO.O$$O$$O.OOO --------",
"------- .O.O* OOO *O.O. --------",
"--------  ..=O&&&O=..  +--------",
"---------+ #&&&&&&&# +----------",
"----------oX#&&#&&#Xo-----------",
"--------- *=oo###oo=*-----------",
"-------- **o==ooo==o**----------",
"--------&o* o==@==o *o&---------",
"--------## ooo*@*ooo ##---------",
"---------- .oo*=*oo.------------",
"---------- o..*=*..o------------",
"---------- =*ooooo*=------------",
"----------- ==...==-------------",
"------------- +-----------------",
"--------------------------------",
"--------------------------------"
};
